<svg width="40" height="40" viewBox="0 0 40 40" fill="none" xmlns="http://www.w3.org/2000/svg">
<path d="M31.5516 9.40252C29.427 8.42768 27.1488 7.70946 24.7667 7.29811C24.7233 7.29017 24.68 7.31001 24.6576 7.34969C24.3646 7.87083 24.0401 8.55069 23.8128 9.08505C21.2507 8.70148 18.7018 8.70148 16.1923 9.08505C15.965 8.53881 15.6286 7.87083 15.3343 7.34969C15.3119 7.31134 15.2686 7.2915 15.2252 7.29811C12.8445 7.70815 10.5662 8.42637 8.44035 9.40252C8.42195 9.41045 8.40617 9.42369 8.3957 9.44087C4.07432 15.8969 2.89051 22.1943 3.47125 28.4136C3.47387 28.444 3.49095 28.4731 3.5146 28.4916C6.36573 30.5854 9.12753 31.8566 11.8381 32.6991C11.8814 32.7123 11.9274 32.6965 11.955 32.6607C12.5962 31.7851 13.1677 30.8619 13.6578 29.891C13.6867 29.8342 13.6591 29.7667 13.6 29.7442C12.6934 29.4003 11.8302 28.981 10.9998 28.5049C10.9341 28.4665 10.9288 28.3726 10.9893 28.3276C11.164 28.1966 11.3388 28.0604 11.5057 27.9228C11.5358 27.8977 11.5779 27.8924 11.6134 27.9083C17.0686 30.3989 22.9745 30.3989 28.3654 27.9083C28.4009 27.8911 28.4429 27.8964 28.4744 27.9215C28.6413 28.0591 28.8161 28.1966 28.9921 28.3276C29.0526 28.3726 29.0486 28.4665 28.9829 28.5049C28.1526 28.9903 27.2893 29.4003 26.3814 29.7429C26.3223 29.7654 26.296 29.8342 26.325 29.891C26.8255 30.8605 27.3971 31.7838 28.0264 32.6594C28.0527 32.6965 28.1 32.7123 28.1434 32.6991C30.867 31.8566 33.6288 30.5854 36.4799 28.4916C36.5049 28.4731 36.5207 28.4453 36.5233 28.4149C37.2183 21.2247 35.3592 14.979 31.5949 9.44219C31.5857 9.42369 31.57 9.41045 31.5516 9.40252ZM14.4724 24.6267C12.83 24.6267 11.4767 23.1189 11.4767 21.2671C11.4767 19.4153 12.8038 17.9074 14.4724 17.9074C16.1542 17.9074 17.4943 19.4285 17.4681 21.2671C17.4681 23.1189 16.141 24.6267 14.4724 24.6267ZM25.5484 24.6267C23.9061 24.6267 22.5528 23.1189 22.5528 21.2671C22.5528 19.4153 23.8798 17.9074 25.5484 17.9074C27.2302 17.9074 28.5704 19.4285 28.5441 21.2671C28.5441 23.1189 27.2302 24.6267 25.5484 24.6267Z" fill="white"/>
</svg>
