<svg width="40" height="40" viewBox="0 0 40 40" fill="none" xmlns="http://www.w3.org/2000/svg">
<g clip-path="url(#clip0_31_38128)">
<rect width="40" height="40" rx="20" fill="#373D74" fill-opacity="0.1"/>
<path d="M34.7914 23.9147C34.0829 24.3411 33.2564 24.4186 32.6267 24.0698C31.8396 23.6047 31.3673 22.5581 31.3673 21.124V16.7442C31.3673 14.6512 30.5408 13.1395 29.124 12.7519C26.7232 12.0543 24.9128 14.9612 24.2437 16.0465L19.9932 22.7519V14.4961C19.9539 12.5969 19.3242 11.4729 18.1435 11.124C17.3563 10.8915 16.1756 11.0078 15.0343 12.7132L5.5493 27.6744C4.28988 25.3101 3.62082 22.6744 3.62082 20C3.62082 10.969 10.9805 3.64341 19.9932 3.64341C29.0059 3.64341 36.3656 10.969 36.3656 20V20.0388V20.0775C36.4443 21.8217 35.8933 23.2171 34.7914 23.9147ZM39.9864 20V19.9612V19.9225C39.9471 8.95349 30.9738 0 19.9932 0C8.97334 0 0 8.95349 0 20C0 31.0077 8.97334 40 19.9932 40C25.0702 40 29.8718 38.1008 33.5713 34.6512C34.3191 33.9535 34.3584 32.8295 33.65 32.093C32.9809 31.3566 31.8396 31.3178 31.0918 31.9767C31.0918 31.9767 31.0918 31.9767 31.0525 32.0155C28.0613 34.8062 24.047 36.3953 19.9145 36.3953C15.0736 36.3953 10.7444 34.3023 7.75328 30.969L16.2937 17.4806V23.7209C16.2937 26.7054 17.4744 27.6744 18.4583 27.9457C19.4422 28.2171 20.9378 28.0233 22.5514 25.5039L27.2349 18.0233C27.3923 17.7907 27.5104 17.5581 27.6678 17.4031V21.2016C27.6678 23.9922 28.8091 26.2403 30.777 27.3256C32.548 28.3333 34.7914 28.217 36.6411 27.093C38.9238 25.6201 40.1439 23.062 39.9864 20Z" fill="white"/>
</g>
<defs>
<clipPath id="clip0_31_38128">
<rect width="40" height="40" rx="20" fill="white"/>
</clipPath>
</defs>
</svg>
