<svg width="40" height="40" viewBox="0 0 40 40" fill="none" xmlns="http://www.w3.org/2000/svg">
<path d="M40 19.7128C40 25.0117 39.112 29.3099 38.0162 29.3099C36.9204 29.3099 36.0327 25.0128 36.0327 19.7128C36.0327 14.4128 36.9208 10.1157 38.0162 10.1157C39.1116 10.1157 40 14.4124 40 19.7128Z" fill="white"/>
<path d="M34.9381 19.7129C34.9381 25.6285 32.4127 30.4258 29.2974 30.4258C26.1822 30.4258 23.6567 25.6285 23.6567 19.7129C23.6567 13.7974 26.1818 9 29.2971 9C32.4123 9 34.9378 13.7959 34.9378 19.7129" fill="white"/>
<path d="M22.5624 19.7128C22.5624 25.9973 17.5116 31.0919 11.2814 31.0919C5.05122 31.0919 0 25.9961 0 19.7128C0 13.4294 5.05083 8.33325 11.2814 8.33325C17.512 8.33325 22.5624 13.4282 22.5624 19.7128Z" fill="white"/>
</svg>
