<svg width="40" height="40" viewBox="0 0 40 40" fill="none" xmlns="http://www.w3.org/2000/svg">
<path fill-rule="evenodd" clip-rule="evenodd" d="M40 20C40 31.0457 31.0457 40 20 40C8.9543 40 0 31.0457 0 20C0 8.9543 8.9543 0 20 0C31.0457 0 40 8.9543 40 20ZM30.4094 17.076C32.0234 17.076 33.3333 18.3859 33.3333 20C33.3333 21.1929 32.6082 22.2222 31.6491 22.69C31.6959 22.9707 31.7193 23.2514 31.7193 23.5555C31.7193 28.0467 26.5029 31.6725 20.0468 31.6725C13.5907 31.6725 8.37428 28.0467 8.37428 23.5555C8.37428 23.2514 8.39767 22.9473 8.44446 22.6666C7.41522 22.1988 6.71346 21.1929 6.71346 20C6.71346 18.3859 8.0234 17.076 9.63744 17.076C10.4094 17.076 11.1345 17.4035 11.6491 17.8947C13.6608 16.421 16.4445 15.5087 19.5556 15.4152L21.0293 8.4444C21.076 8.30405 21.1462 8.18709 21.2632 8.11692C21.3801 8.04674 21.5205 8.02335 21.6608 8.04675L26.5029 9.07598C26.8304 8.37423 27.5322 7.90639 28.3509 7.90639C29.4971 7.90639 30.4328 8.84207 30.4328 9.98827C30.4328 11.1345 29.4971 12.0701 28.3509 12.0701C27.2281 12.0701 26.3158 11.1812 26.269 10.0818L21.9415 9.16955L20.6082 15.4152C23.6491 15.5321 26.4094 16.4678 28.3977 17.8947C28.9123 17.3801 29.614 17.076 30.4094 17.076ZM15.4152 20C14.269 20 13.3333 20.9356 13.3333 22.0818C13.3333 23.228 14.269 24.1637 15.4152 24.1637C16.5614 24.1637 17.4971 23.228 17.4971 22.0818C17.4971 20.9356 16.5614 20 15.4152 20ZM20.0234 29.0994C20.8187 29.0994 23.5322 29.0058 24.9591 27.5789C25.1696 27.3684 25.1696 27.0409 25.0059 26.807C24.7953 26.5965 24.4445 26.5965 24.2339 26.807C23.3216 27.6959 21.4269 28.0234 20.0468 28.0234C18.6667 28.0234 16.7485 27.6959 15.8597 26.807C15.6491 26.5965 15.2983 26.5965 15.0877 26.807C14.8772 27.0175 14.8772 27.3684 15.0877 27.5789C16.4912 28.9824 19.2281 29.0994 20.0234 29.0994ZM22.5029 22.0818C22.5029 23.228 23.4386 24.1637 24.5848 24.1637C25.731 24.1637 26.6667 23.228 26.6667 22.0818C26.6667 20.9356 25.731 20 24.5848 20C23.4386 20 22.5029 20.9356 22.5029 22.0818Z" fill="white"/>
</svg>
