<svg width="40" height="40" viewBox="0 0 40 40" fill="none" xmlns="http://www.w3.org/2000/svg">
<g clip-path="url(#clip0_31_38144)">
<rect width="40" height="40" rx="20" fill="#373D74" fill-opacity="0.1"/>
<path fill-rule="evenodd" clip-rule="evenodd" d="M17.6077 0.0693983C10.9108 0.938284 5.05839 5.08511 2.03845 11.1012C0.690471 13.7865 0.132603 15.9722 0.0196135 19.0109C-0.122236 22.8294 0.498797 25.8217 2.09576 29.0128C3.10409 31.0279 3.87718 31.4511 6.07652 31.1915C8.44344 30.912 8.28267 31.3968 8.28267 24.5383C8.28267 18.4294 8.29765 18.2934 9.0333 17.7141C9.37731 17.4432 9.56571 17.4186 11.3028 17.4186C12.717 17.4186 13.2965 17.4703 13.5903 17.6222C14.4292 18.0565 14.4086 17.8946 14.4086 24.0583C14.4086 28.9433 14.4351 29.6833 14.6109 29.6833C15.1526 29.6833 16.0856 29.3122 16.4187 28.9643L16.7909 28.5754L16.859 21.2823L16.927 13.9891L17.3716 13.5916L17.8162 13.1941H19.8009C21.4274 13.1941 21.8568 13.2361 22.179 13.4266C22.9822 13.9017 22.9849 13.9265 22.9849 20.812C22.9849 24.2672 23.0309 27.0926 23.087 27.0908C23.4449 27.0797 24.9844 26.1565 25.1269 25.8676C25.2542 25.6097 25.2961 23.6564 25.2991 17.8274C25.3035 9.54932 25.288 9.73411 26.0238 9.18711C26.3721 8.92818 26.5912 8.90147 28.3621 8.90147C30.133 8.90147 30.3521 8.92818 30.7004 9.18711C31.4278 9.72784 31.4208 9.65875 31.423 16.3738C31.4242 20.1032 31.4754 22.6014 31.5499 22.5743C31.944 22.4309 34.8211 20.0018 36.0467 18.7778C38.457 16.3708 39.1938 15.1764 38.9797 14.0242C38.8403 13.2737 38.0119 11.3506 37.2589 10.0289C34.2066 4.6722 28.8009 1.00969 22.6286 0.116549C21.7366 -0.0126388 18.4751 -0.0431643 17.6077 0.0693983ZM39.0114 19.8375C35.7404 24.1969 31.0184 28.0409 25.5917 30.7622C20.9938 33.0677 15.4552 34.8762 10.1205 35.8139C9.22198 35.9718 8.42561 36.1193 8.35074 36.1415C8.13048 36.2072 10.1079 37.4305 11.4594 38.0647C16.983 40.6567 23.4089 40.6444 28.6491 38.0318C35.4317 34.6501 39.6589 28.1356 39.9641 20.5942C40.0075 19.5222 40.0123 18.6451 39.9745 18.6451C39.937 18.6451 39.5035 19.1817 39.0114 19.8375Z" fill="white"/>
</g>
<defs>
<clipPath id="clip0_31_38144">
<rect width="40" height="40" rx="20" fill="white"/>
</clipPath>
</defs>
</svg>
