<svg width="210" height="210" viewBox="0 0 210 210" fill="none" xmlns="http://www.w3.org/2000/svg">
<path d="M209.711 104.5C209.89 104.809 209.89 105.191 209.711 105.5L157.789 195.433C157.61 195.742 157.28 195.933 156.923 195.933L53.0773 195.933C52.7201 195.933 52.3899 195.742 52.2113 195.433L0.288661 105.5C0.110042 105.191 0.110042 104.809 0.288676 104.5L52.2113 14.5673C52.39 14.2579 52.7201 14.0673 53.0773 14.0673L156.923 14.0673C157.28 14.0673 157.61 14.2579 157.789 14.5673L209.711 104.5Z" fill="white"/>
<g clip-path="url(#clip0_101_863)">
<path d="M152.991 89.1595C152.805 89.0852 152.618 89.048 152.469 88.9736C152.469 89.048 152.432 89.0852 152.432 89.1595C152.618 89.1967 152.805 89.1967 152.991 89.1595Z" fill="black"/>
<path d="M149.559 105.666C149.447 105.963 148.888 106 148.701 106.595C149.223 106.372 149.746 106.186 150.231 106C150.044 105.777 149.895 105.591 149.708 105.368C149.634 105.48 149.596 105.554 149.559 105.666Z" fill="black"/>
<path d="M148.701 92.3197C148.85 92.2453 148.962 92.2081 149.112 92.1338C149 92.1338 148.925 92.171 148.813 92.2081C148.776 92.2081 148.738 92.2453 148.701 92.3197Z" fill="black"/>
<path d="M149.671 87.9327C149.597 87.8955 149.559 87.8955 149.485 87.8955C149.41 88.007 149.298 88.0814 149.224 88.1929C149.373 88.1186 149.522 88.007 149.671 87.9327Z" fill="black"/>
<path d="M149.373 108.305C150.342 108.491 150.977 107.933 151.723 107.747C151.536 107.524 151.35 107.301 151.163 107.115C150.529 107.413 149.932 107.784 149.373 108.305Z" fill="black"/>
<path d="M151.387 88.5275C151.275 88.4904 151.163 88.4532 151.051 88.416C150.977 88.5647 150.865 88.6762 150.79 88.825C151.014 88.7506 151.2 88.6391 151.387 88.5275Z" fill="black"/>
<path d="M147.88 109.643C149.783 109.941 151.685 109.569 153.55 109.904C153.215 109.495 152.842 109.086 152.506 108.677C150.939 108.937 149.373 109.011 147.88 109.643Z" fill="black"/>
<path d="M139.711 96.7432C139.301 97.3752 139.487 98.0815 139.413 98.7135C139.375 99.0109 139.375 99.3083 139.375 99.6057C140.084 99.1596 140.756 98.7135 141.353 98.193C141.054 97.4867 140.681 96.7803 139.711 96.7432Z" fill="black"/>
<path d="M161.272 104.662C161.683 104.662 162.167 104.625 162.13 104.104C162.056 103.472 161.496 103.621 161.086 103.658C160.675 103.695 160.265 103.77 159.817 103.807C160.153 104.141 160.489 104.476 160.825 104.773C160.899 104.699 161.086 104.662 161.272 104.662Z" fill="black"/>
<path d="M151.686 110.833C152.618 111.019 153.513 111.019 154.446 110.944C154.259 110.721 154.073 110.498 153.886 110.312C153.14 110.461 152.394 110.647 151.686 110.833Z" fill="black"/>
<path d="M162.205 106.186C162.504 106.483 162.802 106.781 163.1 107.078C162.914 106.669 162.615 106.372 162.205 106.186Z" fill="black"/>
<path d="M162.13 102.505C162.429 102.468 162.578 102.208 162.578 101.948C162.578 101.539 162.28 101.427 161.981 101.39C161.571 101.353 161.198 101.39 160.788 101.39C160.974 100.721 161.608 100.944 162.019 100.758C162.392 100.61 162.877 100.572 162.765 100.052C162.69 99.643 162.242 99.643 161.907 99.643C159.967 99.5686 158.064 99.7173 156.199 100.238C157.281 101.279 158.363 102.357 159.482 103.435C160.303 103.1 161.161 102.617 162.13 102.505Z" fill="black"/>
<path d="M122.477 111.874C123.782 112.022 125.125 111.874 126.468 111.911C128.259 111.911 129.825 111.279 131.317 110.312C132.175 109.755 132.362 109.123 131.914 108.416C131.504 107.747 130.721 107.561 129.937 108.119C128.147 109.346 126.17 109.718 124.043 109.792C122.066 109.866 120.425 110.758 119.194 112.32C120.313 112.208 121.357 111.762 122.477 111.874Z" fill="black"/>
<path d="M114.867 103.137C115.203 102.877 115.539 102.58 115.576 102.097C115.688 100.684 115.949 99.3084 115.837 97.8585C115.762 97.1522 115.464 96.6689 114.755 96.5574C114.158 96.4458 113.711 97.0406 113.673 97.9329C113.599 99.3084 113.86 100.684 113.972 102.022C114.046 102.543 114.308 102.914 114.867 103.137Z" fill="black"/>
<path d="M136.951 102.878C136.242 103.063 135.496 103.286 135.085 104.03C135.533 104.662 136.167 104.476 136.69 104.365C137.51 104.179 138.331 103.918 139.114 103.658C140.42 103.212 141.688 102.654 142.919 102.06C142.733 101.614 142.546 101.13 142.36 100.647C140.644 101.576 138.853 102.357 136.951 102.878Z" fill="black"/>
<path d="M139.114 100.461C139.039 100.573 138.965 100.684 138.853 100.796C138.778 100.759 138.704 100.721 138.629 100.684C137.622 101.167 136.54 101.539 135.421 101.837C135.234 101.874 135.122 102.023 135.048 102.283C136.204 102.766 139.226 101.539 142.024 99.8663C141.912 99.5689 141.8 99.2715 141.651 98.9741C140.867 99.5318 140.009 100.015 139.114 100.461Z" fill="black"/>
<path d="M89.5752 109.829C87.4489 109.755 85.4718 109.383 83.6812 108.156C82.8978 107.636 82.1145 107.822 81.7041 108.454C81.2565 109.123 81.443 109.792 82.301 110.35C83.7558 111.316 85.3226 111.948 87.1504 111.948C88.4934 111.948 89.799 112.06 91.1419 111.911C92.2983 111.799 93.3055 112.246 94.4619 112.357C93.1936 110.796 91.5149 109.903 89.5752 109.829Z" fill="black"/>
<path d="M98.8264 96.5574C98.1176 96.6689 97.8192 97.1522 97.7446 97.8585C97.6327 99.2712 97.8938 100.684 98.0057 102.097C98.043 102.58 98.3787 102.877 98.7145 103.137C99.274 102.914 99.5725 102.543 99.6098 102.022C99.7217 100.647 99.9828 99.3084 99.9082 97.9329C99.8336 97.0406 99.4232 96.4458 98.8264 96.5574Z" fill="black"/>
<path d="M149.484 105.145C149.559 105.219 149.596 105.294 149.671 105.368C149.82 105.071 149.969 104.848 150.156 104.625C150.156 104.587 150.118 104.587 150.118 104.55C149.41 103.695 148.664 102.914 147.88 102.134C147.656 102.357 147.47 102.543 147.246 102.729C148.029 103.509 148.776 104.29 149.484 105.145Z" fill="black"/>
<path d="M163.138 107.078C163.324 107.45 163.436 107.896 163.473 108.416C163.473 108.491 163.473 108.602 163.473 108.677C163.884 109.086 164.294 109.495 164.704 109.903C164.667 109.457 164.63 109.011 164.593 108.565C164.108 108.045 163.623 107.561 163.138 107.078Z" fill="black"/>
<path d="M146.687 101.056C146.537 101.316 146.351 101.539 146.127 101.762C146.202 101.836 146.239 101.874 146.313 101.911C146.425 102.022 146.537 102.097 146.649 102.208C146.873 102.022 147.097 101.799 147.283 101.576C147.097 101.39 146.873 101.204 146.687 101.056Z" fill="black"/>
<path d="M160.452 105.591C160.787 105.703 161.049 105.852 161.347 105.889C161.683 105.963 161.944 106.037 162.168 106.186C161.683 105.703 161.235 105.257 160.75 104.773C160.564 104.922 160.452 105.182 160.452 105.591Z" fill="black"/>
<path d="M145.791 100.35C144.859 100.982 143.926 101.539 142.919 102.06C142.956 102.097 142.956 102.171 142.994 102.208C143.068 102.394 143.143 102.58 143.217 102.729C143.702 102.469 144.15 102.208 144.635 101.948C144.635 101.651 144.672 101.353 144.821 101.093C145.157 101.056 145.456 101.167 145.717 101.353C146.015 101.205 146.276 101.056 146.575 100.907C146.239 100.684 146.015 100.498 145.791 100.35Z" fill="black"/>
<path d="M155.453 110.833C155.117 110.87 154.782 110.907 154.409 110.945C154.595 111.168 154.782 111.391 154.968 111.577C155.304 111.539 155.64 111.502 155.975 111.465C155.826 111.242 155.64 111.019 155.453 110.833Z" fill="black"/>
<path d="M142.882 100.164C142.807 99.9407 142.695 99.7548 142.621 99.5317C142.434 99.6433 142.248 99.7548 142.024 99.9035C142.136 100.164 142.248 100.424 142.322 100.647C142.509 100.535 142.733 100.424 142.919 100.312C142.919 100.275 142.919 100.201 142.882 100.164Z" fill="black"/>
<path d="M159.407 103.398C159.071 103.509 158.698 103.621 158.325 103.621C158.4 103.695 158.512 103.807 158.586 103.881C158.997 103.844 159.37 103.807 159.78 103.77C159.668 103.658 159.556 103.547 159.407 103.398Z" fill="black"/>
<path d="M163.175 121.354C163.287 121.54 163.548 121.688 163.511 121.911C163.884 122.432 164.294 122.915 164.667 123.436C164.704 123.027 164.779 122.655 164.816 122.246C164.48 121.837 164.182 121.428 163.846 120.982C163.66 121.205 163.324 121.131 163.175 121.354Z" fill="black"/>
<path d="M141.688 98.9738C141.875 98.8623 142.061 98.7136 142.248 98.6021C142.136 98.3418 142.024 98.0444 141.912 97.7842C141.725 97.9329 141.576 98.0816 141.39 98.2303C141.39 98.2303 141.39 98.2303 141.39 98.2675C141.464 98.4905 141.576 98.7508 141.688 98.9738Z" fill="black"/>
<path d="M155.155 100.535C155.192 100.535 155.229 100.498 155.267 100.498C155.565 100.386 155.826 100.312 156.125 100.201C155.976 100.052 155.826 99.9031 155.677 99.7544C155.416 99.9031 155.118 100.089 154.856 100.238C154.968 100.386 155.08 100.461 155.155 100.535Z" fill="black"/>
<path d="M149.373 86.929C148.85 86.8918 148.328 86.7803 147.806 86.7431C147.433 87.3007 147.097 87.8584 146.724 88.4532C146.873 88.6019 147.06 88.7506 147.209 88.8993C148.067 89.7172 149.074 90.3492 150.193 91.0555C150.454 90.9068 150.716 90.7581 150.977 90.6094C149.97 89.9774 149.037 89.2711 148.104 88.4904C147.843 88.2673 147.47 88.0814 147.358 87.4866C148.104 87.561 148.776 87.7097 149.485 87.8956C149.858 87.4866 150.231 87.0777 150.566 86.6316C150.193 86.4085 149.858 86.1855 149.485 85.9624C149.186 85.7765 148.925 85.6278 148.664 85.4048C148.515 85.6278 148.365 85.8509 148.216 86.1111C148.589 86.4085 148.962 86.6688 149.373 86.929Z" fill="black"/>
<path d="M151.163 107.115C151.424 106.967 151.723 106.855 151.984 106.744C151.685 106.409 151.387 106.037 151.126 105.703C150.827 105.777 150.529 105.889 150.23 106C150.529 106.372 150.827 106.744 151.163 107.115Z" fill="black"/>
<path d="M150.977 91.5387C150.715 91.5758 150.454 91.5758 150.268 91.5758C149.895 91.7617 149.484 91.9476 149.111 92.1335C150.529 91.9104 151.872 92.877 153.327 92.6168C153.476 91.8732 152.879 91.6874 152.469 91.4643C152.17 91.3156 151.909 91.1297 151.611 90.9438C151.312 91.0554 151.014 91.2041 150.753 91.3528C150.827 91.4271 150.902 91.5015 150.977 91.5387Z" fill="black"/>
<path d="M151.051 88.4158C151.275 88.044 151.573 87.7095 151.872 87.4121C151.573 87.2262 151.275 87.0775 151.014 86.8916C150.603 87.2634 150.156 87.6723 149.671 87.9325C150.119 88.0812 150.603 88.2299 151.051 88.4158Z" fill="black"/>
<path d="M152.431 88.9363C152.543 88.6017 152.693 88.3043 152.916 88.0069C152.767 87.8954 152.581 87.821 152.431 87.7095C152.058 88.0069 151.723 88.2671 151.35 88.5273C151.723 88.676 152.096 88.8247 152.431 88.9363Z" fill="black"/>
<path d="M153.625 89.3455C153.775 89.2711 153.961 89.1596 154.11 89.0853C154.073 88.8994 153.998 88.7507 153.887 88.6392C153.588 88.825 153.29 89.0481 152.991 89.1224C153.215 89.234 153.402 89.3083 153.625 89.3455Z" fill="black"/>
<path d="M151.723 107.747C151.984 108.045 152.245 108.379 152.506 108.677C152.842 108.64 153.14 108.565 153.476 108.491C153.215 108.194 152.954 107.859 152.693 107.562C152.431 107.599 152.208 107.673 151.946 107.71C151.835 107.71 151.797 107.747 151.723 107.747Z" fill="black"/>
<path d="M148.44 92.3192C148.552 92.2821 148.664 92.2449 148.813 92.2077C149.074 91.9103 149.335 91.6872 149.597 91.4642C149.447 91.427 149.298 91.3898 149.186 91.427C148.589 91.427 148.03 91.5385 147.731 92.1334C147.47 92.691 147.731 93.1371 148.067 93.546C148.216 93.7319 148.403 93.8806 148.552 94.0665C149.597 95.1074 150.641 96.1483 151.686 97.1893C151.872 96.9662 152.059 96.7432 152.245 96.5573C151.201 95.5907 150.193 94.587 149.149 93.6204C148.85 93.2486 148.589 92.8769 148.44 92.3192Z" fill="black"/>
<path d="M153.551 109.904C153.663 110.015 153.775 110.164 153.887 110.276C154.073 110.238 154.26 110.164 154.483 110.127C154.185 110.053 153.849 109.978 153.551 109.904Z" fill="black"/>
<path d="M153.737 99.1599C153.998 99.0112 154.297 98.8253 154.558 98.6766C154.409 98.5279 154.259 98.3792 154.073 98.2305C153.7 98.3048 153.364 98.3792 153.028 98.4535C153.289 98.7138 153.513 98.9368 153.737 99.1599Z" fill="black"/>
<path d="M138.666 100.684C138.816 100.61 138.965 100.535 139.151 100.461C139.3 100.201 139.375 99.9033 139.375 99.6431C139.151 99.7918 138.927 99.9033 138.741 100.015C138.592 100.089 138.48 100.164 138.331 100.238C138.368 100.387 138.48 100.535 138.666 100.684Z" fill="black"/>
<path d="M156.162 100.238C155.863 100.312 155.565 100.424 155.304 100.535C155.266 100.535 155.229 100.572 155.192 100.572C156.236 101.613 157.318 102.617 158.363 103.658C158.736 103.621 159.109 103.546 159.444 103.435C158.325 102.32 157.244 101.279 156.162 100.238Z" fill="black"/>
<path d="M153.551 109.903C153.849 109.978 154.147 110.052 154.446 110.127C154.259 110.164 154.073 110.238 153.849 110.275C154.035 110.498 154.222 110.721 154.409 110.907C154.744 110.87 155.08 110.833 155.453 110.796C154.782 110.015 154.11 109.234 153.439 108.454C153.14 108.528 152.804 108.602 152.469 108.639C152.842 109.086 153.215 109.495 153.551 109.903Z" fill="black"/>
<path d="M151.723 107.747C151.797 107.747 151.872 107.71 151.909 107.71C152.17 107.673 152.394 107.599 152.655 107.562C152.432 107.301 152.208 107.004 151.947 106.744C151.686 106.855 151.387 106.967 151.126 107.115C151.35 107.338 151.536 107.524 151.723 107.747Z" fill="black"/>
<path d="M150.231 106C150.529 105.888 150.827 105.814 151.126 105.703C150.827 105.331 150.529 104.996 150.231 104.625C150.044 104.848 149.858 105.108 149.746 105.368C149.858 105.554 150.044 105.777 150.231 106Z" fill="black"/>
<path d="M154.148 89.4939C154.185 89.308 154.148 89.1965 154.148 89.085C153.998 89.1965 153.812 89.2708 153.663 89.3452C153.812 89.4195 153.961 89.4567 154.148 89.4939Z" fill="black"/>
<path d="M164.704 109.867C165.301 110.461 165.935 111.093 166.532 111.688C166.495 111.242 166.457 110.759 166.383 110.313C165.786 109.718 165.189 109.123 164.592 108.528C164.63 108.974 164.667 109.421 164.704 109.867Z" fill="black"/>
<path d="M139.375 99.643C139.412 99.3456 139.412 99.0482 139.412 98.7508C139.487 98.1188 139.263 97.4497 139.711 96.7805C140.718 96.8177 141.054 97.524 141.352 98.2303C141.539 98.0816 141.688 97.9329 141.874 97.7842C141.8 97.5612 141.688 97.3753 141.613 97.1522C141.315 96.4459 140.755 95.9626 139.972 95.9626C139.151 95.9254 138.704 96.5574 138.331 97.2266C138.181 96.7061 138.069 96.2229 137.92 95.7024C137.659 94.7358 137.249 93.8436 136.652 93.0257C135.794 91.8361 134.936 91.6874 133.742 92.3937C133.481 92.5425 133.332 92.9514 132.847 92.7283C133.22 90.4978 133.966 88.0442 130.46 87.5609C131.802 85.9995 132.362 84.0664 133.854 82.6165C135.384 83.2113 136.316 82.0217 137.286 80.9436C138.554 82.0217 139.599 81.4269 140.569 80.6834C141.427 80.0514 142.136 79.2335 143.068 78.6387C143.068 78.7874 143.105 78.8618 143.068 78.9733C142.434 80.9064 143.105 81.8358 145.12 81.9102C146.09 81.9474 147.06 81.9102 148.029 81.6871C147.768 81.9474 147.47 82.0961 147.209 82.2819C145.866 83.2113 145.791 83.992 146.91 85.1445C147.283 85.5162 147.656 85.8508 148.067 86.1854C148.216 85.9623 148.365 85.7393 148.514 85.4791C148.253 85.2932 147.992 85.1073 147.731 84.8842C146.687 83.992 146.761 83.2857 147.955 82.5794C148.664 82.1704 149.41 81.9102 150.156 81.5384C150.566 81.3525 151.088 81.241 151.2 80.609C150.753 80.2001 150.268 80.4232 149.783 80.5347C148.44 80.8321 147.134 81.2782 145.717 81.2038C145.344 81.2038 144.971 81.2038 144.598 81.1667C143.478 80.9808 143.143 80.4603 143.553 79.3822C143.926 78.3041 144.523 77.3376 145.157 76.371C145.344 76.0736 145.679 75.8134 145.605 75.3301C145.008 75.4044 144.784 75.8505 144.486 76.1479C143.478 77.1517 142.509 78.1926 141.389 79.0477C141.128 79.2707 140.867 79.4566 140.606 79.6425C139.189 80.5719 138.778 80.5347 137.696 79.3079C137.137 79.3079 136.876 79.754 136.652 80.1258C135.869 81.3526 134.936 82.2076 133.369 81.2782C132.586 82.0217 132.623 83.1742 131.728 83.769C130.87 84.3266 129.788 84.1779 128.93 84.8099C129.191 85.888 130.124 85.3304 130.758 85.6278C130.348 86.7059 129.154 87.1148 128.669 88.0814C129.005 88.8621 129.602 88.5646 130.086 88.5646C131.914 88.5646 132.25 88.8992 132.213 90.7208C132.175 92.2079 131.616 93.5834 131.131 94.9589C130.944 95.4793 130.348 96.1857 131.131 96.5574C131.765 96.8548 132.026 96.037 132.325 95.5909C132.81 94.9589 133.22 94.2525 133.817 93.6949C134.973 92.5425 135.607 92.6168 136.428 94.0295C137.025 95.0704 137.323 96.2229 137.584 97.3753C137.771 98.1932 137.958 99.0482 138.144 99.8661C138.181 99.9776 138.219 100.126 138.256 100.238C138.405 100.163 138.517 100.089 138.666 100.015C138.927 99.9033 139.151 99.7545 139.375 99.643Z" fill="black"/>
<path d="M149.671 87.9325C150.156 87.6351 150.566 87.2633 151.014 86.8916C150.865 86.8172 150.753 86.7057 150.604 86.6313C150.231 87.0403 149.895 87.4864 149.522 87.8953C149.559 87.8953 149.597 87.9325 149.671 87.9325Z" fill="black"/>
<path d="M146.649 101.019C146.612 100.982 146.575 100.944 146.5 100.907C146.202 101.056 145.941 101.205 145.642 101.353C145.791 101.465 145.978 101.614 146.127 101.762C146.351 101.502 146.537 101.279 146.649 101.019Z" fill="black"/>
<path d="M147.88 102.134C147.694 101.948 147.47 101.762 147.284 101.576C147.06 101.762 146.873 101.985 146.649 102.208C146.836 102.394 147.06 102.58 147.246 102.766C147.47 102.543 147.657 102.357 147.88 102.134Z" fill="black"/>
<path d="M163.175 121.354C163.287 121.131 163.623 121.205 163.846 121.019C163.697 120.833 163.548 120.647 163.399 120.461C161.011 117.376 158.512 114.439 155.975 111.465C155.64 111.502 155.304 111.539 154.968 111.576C157.841 114.922 160.676 118.305 163.399 121.8C163.436 121.837 163.473 121.874 163.511 121.948C163.548 121.688 163.324 121.539 163.175 121.354Z" fill="black"/>
<path d="M151.387 88.5274C151.76 88.3044 152.096 88.007 152.469 87.7096C152.282 87.5981 152.096 87.4865 151.909 87.375C151.611 87.6724 151.312 88.007 151.088 88.3787C151.163 88.4531 151.275 88.4903 151.387 88.5274Z" fill="black"/>
<path d="M148.813 92.1708C148.925 92.1337 149 92.1337 149.111 92.0965C149.484 91.9106 149.895 91.7247 150.268 91.5388C150.007 91.5017 149.82 91.4645 149.596 91.3901C149.335 91.6504 149.074 91.9106 148.813 92.1708Z" fill="black"/>
<path d="M143.927 103.398C144.598 103.101 144.598 102.506 144.635 101.948C144.15 102.208 143.703 102.469 143.218 102.729C143.33 103.026 143.516 103.249 143.927 103.398Z" fill="black"/>
<path d="M163.138 107.078C162.839 106.781 162.541 106.483 162.242 106.186C162.018 106.074 161.72 105.963 161.422 105.888C161.123 105.814 160.825 105.703 160.526 105.591C160.526 105.219 160.601 104.922 160.862 104.773C160.526 104.439 160.191 104.104 159.855 103.807C159.445 103.844 159.071 103.881 158.661 103.918C160.302 105.48 161.907 107.078 163.511 108.677C163.511 108.602 163.511 108.491 163.511 108.416C163.399 107.859 163.324 107.413 163.138 107.078Z" fill="black"/>
<path d="M146.277 87.3007C146.127 87.7096 146.314 88.0442 146.65 88.3044C146.687 88.3416 146.724 88.3788 146.799 88.4159C147.135 87.8583 147.508 87.3007 147.881 86.7058C147.694 86.6687 147.508 86.6687 147.358 86.6687C146.873 86.6315 146.426 86.8174 146.277 87.3007Z" fill="black"/>
<path d="M153.812 99.2343C154.185 99.5689 154.52 99.9407 154.894 100.275C155.155 100.089 155.416 99.9407 155.714 99.792C155.341 99.4202 154.968 99.0484 154.595 98.7139C154.334 98.8626 154.036 99.0485 153.774 99.1972C153.774 99.1972 153.774 99.1972 153.812 99.2343Z" fill="black"/>
<path d="M153.028 98.4537C153.364 98.3794 153.737 98.305 154.073 98.2307C153.476 97.6359 152.842 97.0782 152.245 96.4834C152.059 96.7065 151.872 96.8923 151.686 97.1154C152.17 97.5987 152.618 98.0448 153.028 98.4537Z" fill="black"/>
<path d="M150.716 91.353C151.014 91.2043 151.312 91.0927 151.574 90.944C151.387 90.8325 151.163 90.6838 150.977 90.5723C150.716 90.721 150.454 90.8325 150.193 91.0184C150.38 91.1299 150.529 91.2414 150.716 91.353Z" fill="black"/>
<path d="M152.991 89.1596C153.327 89.0853 153.625 88.8622 153.886 88.6764C153.7 88.4905 153.476 88.379 153.252 88.2674C153.14 88.1931 153.029 88.1187 152.917 88.0815C152.693 88.3418 152.506 88.6392 152.432 89.0109C152.618 89.0109 152.805 89.0853 152.991 89.1596Z" fill="black"/>
<path d="M164.853 122.246C164.816 122.655 164.779 123.027 164.704 123.436C165.226 124.105 165.711 124.737 166.234 125.406C166.271 125.034 166.345 124.625 166.383 124.254C165.861 123.584 165.338 122.915 164.853 122.246Z" fill="black"/>
<path d="M143.516 101.576C143.18 101.204 143.105 100.758 142.956 100.312C142.77 100.424 142.546 100.535 142.359 100.647C142.546 101.13 142.732 101.576 142.919 102.059C143.926 101.576 144.859 100.981 145.791 100.349C144.784 99.7173 144.262 100.089 143.516 101.576Z" fill="black"/>
<path d="M139.114 100.461C138.965 100.535 138.816 100.61 138.629 100.684C138.704 100.721 138.779 100.758 138.853 100.796C139.002 100.684 139.077 100.572 139.114 100.461Z" fill="black"/>
<path d="M142.248 98.6021C142.061 98.7136 141.875 98.8623 141.688 98.9738C141.8 99.2712 141.949 99.5686 142.061 99.866C142.248 99.7545 142.434 99.643 142.658 99.4943C142.509 99.234 142.359 98.8995 142.248 98.6021Z" fill="black"/>
<path d="M161.31 138.64C164.07 139.756 166.271 141.763 169.143 142.47C167.465 141.02 166.607 139.161 166.122 137.116C165.45 134.254 165.45 131.317 165.823 128.417C165.935 127.413 166.085 126.447 166.234 125.443C165.712 124.774 165.227 124.142 164.704 123.473C164.667 123.882 164.592 124.328 164.518 124.737C163.884 128.975 163.772 133.176 164.63 137.414C164.816 138.269 165.152 139.087 165.488 140.016C164.854 140.09 164.518 139.644 164.07 139.496C162.839 139.012 161.907 137.934 160.489 137.934C160.303 137.934 160.191 137.785 160.116 137.637C159.743 136.93 159.146 136.336 158.736 135.295C159.892 136.187 160.638 137.153 161.832 137.525C162.242 136.968 161.869 136.484 161.757 135.964C162.242 135.927 162.466 136.41 162.876 136.336C163.287 135.555 163.287 135.555 162.615 133.956C163.585 133.213 163.585 133.027 162.578 131.651C162.727 130.908 163.399 130.202 162.802 129.347C162.69 129.198 162.765 129.012 162.914 128.863C164.07 127.711 163.734 126.41 163.249 125.108C163.511 124.662 164.107 124.923 164.443 124.551C164.219 123.845 163.623 123.473 162.988 123.25C162.093 122.915 161.347 122.432 160.787 121.54C161.795 121.577 162.541 122.469 163.548 122.283C163.623 122.172 163.66 122.097 163.66 122.023C163.623 121.986 163.585 121.949 163.548 121.874C160.862 118.38 157.99 115.034 155.117 111.651C153.066 111.837 151.014 111.725 148.925 111.539C146.09 111.279 143.367 110.498 140.681 109.495C142.248 109.086 143.852 109.049 145.642 108.863C144.933 107.822 143.777 108.379 143.106 107.747C144.747 107.227 146.612 106.93 147.507 104.959C146.351 104.439 145.642 105.108 144.859 105.405C143.367 106 141.837 106.446 140.047 106.223C142.882 105.591 145.344 104.513 147.358 102.766C147.172 102.58 146.948 102.394 146.761 102.208C146.09 102.803 145.381 103.398 144.449 103.658C145.008 102.877 145.717 102.357 146.276 101.725C146.127 101.576 145.978 101.428 145.791 101.316C145.418 101.502 145.083 101.688 144.747 101.911C144.71 102.468 144.71 103.063 144.038 103.361C143.665 103.249 143.441 102.989 143.329 102.692C142.733 103.026 142.098 103.323 141.464 103.547C139.487 104.327 137.398 104.699 135.309 105.219C135.794 105.666 136.391 105.628 137.137 105.851C136.055 106 135.272 105.926 134.227 105.591C135.346 107.115 136.764 107.487 138.219 107.785C135.757 108.119 133.929 106.595 131.84 105.591C131.616 105.294 132.138 104.848 131.765 104.513C131.504 105.034 131.616 105.814 130.646 105.851C130.534 104.662 131.616 103.584 131.019 102.171C130.012 103.547 130.348 105.331 129.117 106.409C129.117 104.587 130.721 103.026 129.937 101.056C129.378 101.39 129.378 102.022 128.93 102.617V99.7546C128.184 100.61 128.147 101.576 127.289 102.394C127.587 100.981 128.035 99.8662 128.035 98.6022C127.214 99.2713 127.289 100.498 126.356 101.056C126.207 100.052 127.065 99.1226 126.431 98.1561C125.797 98.4907 126.133 99.2342 125.536 99.6059C125.498 98.1932 126.692 96.7062 125.163 95.5909C125.424 95.0705 125.759 95.2564 126.021 95.3307C126.953 95.6653 127.699 96.2973 128.445 96.9293C130.46 98.7509 132.698 100.052 135.794 99.829C134.862 100.572 133.854 100.238 133.108 100.684C133.444 101.056 133.892 101.13 134.339 101.093C135.72 100.944 137.137 100.721 138.405 100.126C138.368 100.015 138.331 99.9033 138.293 99.7546C138.107 98.9368 137.92 98.0817 137.734 97.2639C137.473 96.1114 137.174 94.959 136.577 93.918C135.72 92.4682 135.123 92.3938 133.966 93.5835C133.407 94.1411 132.959 94.8474 132.474 95.4794C132.176 95.9255 131.915 96.7434 131.28 96.446C130.497 96.0742 131.094 95.3679 131.28 94.8474C131.765 93.4719 132.362 92.1336 132.362 90.6094C132.4 88.7878 132.064 88.4532 130.236 88.4532C129.751 88.4532 129.154 88.7506 128.818 87.9699C129.266 87.0405 130.497 86.5944 130.907 85.5163C130.273 85.2189 129.341 85.7394 129.08 84.6984C129.937 84.0665 131.019 84.178 131.877 83.6575C132.773 83.0627 132.773 81.9103 133.519 81.1667C135.085 82.0961 135.981 81.2411 136.801 80.0143C137.062 79.6425 137.286 79.1964 137.846 79.1964C138.928 80.4232 139.375 80.4604 140.756 79.531C141.017 79.3451 141.278 79.1221 141.539 78.9362C142.658 78.044 143.628 77.0402 144.635 76.0365C144.933 75.7391 145.157 75.2558 145.754 75.2186C145.829 75.7391 145.493 75.9621 145.307 76.2595C144.672 77.2261 144.076 78.1927 143.702 79.2708C143.329 80.3489 143.628 80.8693 144.747 81.0552C145.12 81.1296 145.493 81.0924 145.866 81.0924C147.246 81.1296 148.589 80.6835 149.932 80.4232C150.417 80.3117 150.902 80.0887 151.35 80.4976C151.238 81.1667 150.678 81.2411 150.305 81.427C149.596 81.7987 148.813 82.059 148.104 82.4679C146.911 83.1742 146.836 83.8806 147.88 84.7728C148.142 84.9959 148.403 85.1817 148.664 85.3676C150.193 83.0999 151.797 80.9065 153.7 78.7503C153.551 79.7912 153.551 79.7912 152.767 80.7206C152.32 81.2783 151.872 81.7987 151.238 82.5423C152.655 82.1333 153.289 80.9065 154.707 80.6835C153.625 81.9103 152.618 83.0255 151.611 84.1408C153.066 83.6203 153.774 82.059 155.49 82.059C153.513 83.1742 152.021 84.8471 150.566 86.5201C150.716 86.5944 150.827 86.7059 150.977 86.7803C151.723 86.1111 152.431 85.4048 153.364 85.1074C153.476 85.2561 153.551 85.442 153.663 85.5907C153.066 86.1855 152.431 86.7059 151.835 87.3379C152.021 87.4495 152.208 87.561 152.394 87.6725C152.954 87.2264 153.513 86.7803 154.259 86.4457C153.812 87.0405 153.289 87.4866 152.879 87.9699C152.991 88.0443 153.103 88.1186 153.215 88.1558C153.401 88.2673 153.663 88.3788 153.849 88.5647C154.185 88.3417 154.558 88.1558 155.005 88.3045C154.707 88.5647 154.371 88.7878 154.036 89.0108C154.073 89.1224 154.073 89.2711 154.036 89.4198C153.849 89.3826 153.7 89.3082 153.513 89.2711C152.655 89.7172 151.76 90.0518 150.865 90.4979C151.051 90.6094 151.275 90.7581 151.462 90.8696C152.133 90.5722 152.842 90.312 153.588 90.1633V91.5016C154.259 91.0183 154.819 90.6094 155.714 90.7953C154.147 92.3195 152.357 93.5463 151.275 95.4422C152.618 94.7359 153.513 93.4347 155.005 92.9143C154.185 94.1783 153.178 95.2564 152.133 96.4088C152.73 97.0036 153.364 97.5613 153.961 98.1561C154.52 98.0445 155.043 97.933 155.64 97.8958C155.229 98.1561 154.819 98.3791 154.409 98.6022C154.782 98.9739 155.155 99.3457 155.528 99.6803C157.02 98.8252 158.587 98.1932 160.34 97.8958C161.272 97.7471 162.317 97.6728 162.802 96.4832C163.697 100.424 164.07 104.402 164.406 108.379C165.003 108.974 165.6 109.569 166.196 110.164C166.159 109.829 166.122 109.532 166.085 109.197C165.525 104.402 165.227 99.6059 164.219 94.8474C163.287 90.5722 162.392 86.297 161.049 82.1333C160.75 81.1667 160.228 80.6091 159.183 80.5348C158.698 80.4976 158.214 80.3489 157.691 80.2374C158.176 79.0106 159.706 78.3786 159.333 76.8544C158.325 76.557 157.878 77.5607 157.02 77.635C157.094 77.0774 157.467 76.8172 157.729 76.5198C158.176 76.0365 158.437 75.2558 158.251 74.8097C157.729 73.6944 158.176 72.8022 158.587 71.8356C158.773 71.4267 158.848 70.9806 158.736 70.4601C158.624 69.8281 158.848 69.1218 159.631 68.75C161.422 67.895 163.212 67.0028 165.115 66.3336C165.6 66.1477 166.196 66.1477 166.383 65.3299C165.935 65.0325 165.637 64.512 164.965 64.289C163.623 63.88 162.317 63.3967 160.974 62.9878C157.393 61.9097 153.737 61.6123 150.044 61.6495C149.485 61.6495 148.85 61.761 148.254 61.2777C148.776 60.9431 149.186 60.7201 149.634 60.5342C151.238 59.865 152.916 59.4933 154.595 59.01C155.005 58.8985 155.602 58.8985 155.789 57.9691C149.634 56.5936 143.404 55.9988 137.137 55.7385C137.212 54.14 139.263 53.5823 139.226 51.6492C134.712 52.8388 130.385 53.9541 125.946 55.1065C126.207 53.8797 126.841 53.0247 127.252 52.1325C127.699 51.2031 128.968 50.8313 129.08 49.493C124.417 49.9763 119.903 50.6454 115.389 52.021C115.65 50.4596 116.21 49.3071 116.844 48.1175C117.366 47.1509 117.142 46.742 116.098 46.7792C112.89 46.8907 109.868 47.597 107.145 49.3815C106.959 49.493 106.809 49.6045 106.66 49.7532C106.511 49.6045 106.362 49.493 106.175 49.3815C103.452 47.6342 100.393 46.9279 97.2223 46.7792C96.1778 46.742 95.954 47.1509 96.4763 48.1175C97.1104 49.2699 97.67 50.4596 97.9311 52.021C93.4174 50.6454 88.9036 49.9763 84.2407 49.493C84.3526 50.8313 85.6209 51.2031 86.0686 52.1325C86.4789 53.0619 87.1131 53.8797 87.3742 55.1065C82.9351 53.9541 78.6079 52.8388 74.0942 51.6492C74.0569 53.5452 76.1085 54.14 76.1832 55.7385C69.9162 55.9988 63.6865 56.5936 57.5314 57.9691C57.7179 58.8985 58.2775 58.8613 58.7251 59.01C60.4038 59.4933 62.0824 59.865 63.6865 60.5342C64.1341 60.7201 64.5445 60.9431 65.0667 61.2777C64.4699 61.761 63.8357 61.6495 63.2761 61.6495C59.5831 61.6123 55.8901 61.9097 52.3462 62.9878C51.0033 63.3967 49.6977 63.88 48.3547 64.289C47.7206 64.4748 47.4222 65.0325 46.9372 65.3299C47.1237 66.1477 47.7206 66.1477 48.2055 66.3336C50.0707 67.0028 51.8613 67.895 53.6891 68.75C54.4725 69.1218 54.6963 69.8281 54.5844 70.4601C54.5098 70.9806 54.5844 71.4267 54.7336 71.8356C55.144 72.8022 55.5916 73.6572 55.0694 74.8097C54.8456 75.2558 55.144 75.9993 55.5916 76.5198C55.8528 76.8172 56.2258 77.1146 56.3004 77.635C55.4424 77.5607 54.9948 76.557 53.9876 76.8544C53.6145 78.3786 55.1067 79.0106 55.6289 80.2374C55.144 80.3489 54.6217 80.4976 54.1368 80.5348C53.0923 80.6091 52.57 81.1296 52.2716 82.1333C50.9287 86.297 50.0334 90.5722 49.1008 94.8474C48.0563 99.5687 47.7952 104.402 47.2356 109.197C47.1983 109.569 47.161 109.978 47.1237 110.35C47.1237 110.536 47.1237 110.684 47.0864 110.833C47.1237 110.982 47.1983 111.093 47.1983 111.279C47.1983 111.391 47.2356 111.502 47.2356 111.614C47.7579 111.093 48.2801 110.573 48.8024 110.052C49.0635 109.792 49.3246 109.532 49.5858 109.309C51.4882 107.413 53.3907 105.554 55.3305 103.695C55.3678 103.658 55.4051 103.621 55.4424 103.584C56.9719 102.097 58.464 100.647 59.9934 99.1598C60.6649 98.5278 61.2991 97.8587 61.9332 97.2267C62.5301 96.6319 63.0896 96.0371 63.6865 95.4422C64.1714 94.9218 64.6937 94.4385 65.2159 93.9552C65.4024 93.8065 65.5517 93.6206 65.7009 93.4347C66.0366 93.0258 66.335 92.5797 66.0366 92.0221C65.7382 91.4273 65.1786 91.3157 64.5818 91.3157C64.4699 91.3157 64.3953 91.3157 64.2833 91.3529C64.246 91.3529 64.246 91.3529 64.2087 91.3529C64.1341 91.3529 64.0222 91.3901 63.9476 91.4273C63.7238 91.4644 63.5 91.5388 63.2388 91.5388C63.1642 91.5388 63.0896 91.5388 63.015 91.5388C62.9404 91.5388 62.8658 91.5388 62.7539 91.5016C63.4254 91.0183 64.0968 90.6094 64.731 90.2005L64.7683 90.1633C64.8802 90.0889 65.0294 90.0146 65.1413 89.903C65.1786 89.8659 65.2159 89.8287 65.2532 89.8287C65.3651 89.7543 65.4397 89.68 65.5517 89.6056C65.589 89.5685 65.6636 89.5313 65.7009 89.4941C65.8128 89.4198 65.8874 89.3454 65.962 89.2711C65.9993 89.2339 66.0366 89.1967 66.0739 89.1595C66.1858 89.048 66.335 88.9365 66.4469 88.825C66.5589 88.7134 66.6708 88.6391 66.7454 88.5275C66.8573 88.416 66.9319 88.3417 67.0438 88.2301C67.3422 87.9699 67.5287 87.6353 67.4168 87.2264C67.2676 86.7431 66.82 86.5944 66.4096 86.5944C66.1485 86.5944 65.8874 86.6316 65.6263 86.6688C65.4024 86.7059 65.1786 86.7431 64.9175 86.7803C64.731 86.8175 64.5072 86.8175 64.3206 86.8546C64.6564 86.6316 64.9921 86.4457 65.3278 86.1855C65.8128 85.8509 66.2604 85.4791 66.6708 85.033C67.7899 83.8434 67.7153 83.0627 66.3723 82.1705C66.1112 81.9846 65.8128 81.8359 65.5517 81.5757C66.5216 81.7987 67.4914 81.8359 68.4613 81.7987C70.513 81.7244 71.1472 80.795 70.513 78.8619C70.4757 78.7875 70.513 78.676 70.513 78.5273C71.4829 79.1221 72.1917 79.9399 73.0124 80.5719C73.9823 81.3155 75.0267 81.9103 76.2951 80.8322C77.3023 81.9103 78.2348 83.0999 79.727 82.5051C81.2191 83.9549 81.7787 85.8881 83.1216 87.4495C79.6524 87.9699 80.3611 90.4235 80.7342 92.6169C80.2492 92.8399 80.0627 92.431 79.8389 92.2823C78.6079 91.5388 77.7872 91.7247 76.9292 92.9143C76.3324 93.7322 75.9593 94.6244 75.6609 95.5909C75.5117 96.0742 75.3998 96.5947 75.2506 97.1152C74.8775 96.446 74.4299 95.8512 73.6092 95.8512C72.8258 95.8883 72.3036 96.3716 71.9679 97.0408C71.8559 97.301 71.744 97.5613 71.6321 97.8587C71.5202 98.1189 71.4083 98.342 71.3337 98.6022C71.2218 98.8996 71.0726 99.197 70.9607 99.4944C70.8861 99.6803 70.8115 99.8662 70.7368 100.052C70.6995 100.126 70.6622 100.201 70.6622 100.275C70.513 100.684 70.4384 101.13 70.1027 101.465C69.3193 99.9405 68.8344 99.5688 67.7526 100.275C67.6407 100.349 67.5287 100.424 67.4168 100.498C67.3795 100.498 67.3795 100.535 67.3422 100.535C67.2303 100.61 67.1184 100.721 66.9692 100.833C66.9692 100.833 66.9319 100.833 66.9319 100.87C66.4469 101.279 65.9993 101.688 65.5517 102.134C65.2159 102.468 64.8429 102.84 64.5072 103.175C64.4699 103.212 64.4326 103.249 64.4326 103.249C64.0968 103.621 63.7611 103.993 63.4254 104.402C63.3508 104.476 63.3134 104.55 63.2388 104.625C62.1943 105.889 61.1125 107.115 60.068 108.379C59.3966 109.16 58.7251 109.941 58.091 110.684C57.9044 110.907 57.7179 111.093 57.5314 111.316C55.0321 114.253 52.5327 117.227 50.1453 120.276C49.9215 120.536 49.735 120.833 49.5112 121.094C49.1754 121.54 48.8397 121.949 48.504 122.395C48.019 123.027 47.4968 123.696 47.0118 124.328C47.0491 124.737 47.0864 125.146 47.1237 125.555C47.2356 126.447 47.3849 127.339 47.4968 128.231C47.8698 131.168 47.8698 134.068 47.1983 136.93C46.7134 138.975 45.8554 140.834 44.1768 142.284C47.0491 141.577 49.25 139.57 52.0105 138.455C51.824 139.867 51.6375 141.243 51.4882 142.618C51.339 143.994 51.0406 145.369 51.2271 146.856C52.2343 146.633 52.57 146.001 52.9804 145.444C53.913 144.142 54.8829 142.879 56.0393 141.763C56.4869 141.317 57.0465 140.945 57.7925 140.351C57.2703 142.023 56.6361 143.362 56.3004 145.072C57.9044 143.808 59.322 142.767 61.0379 142.209C62.3436 141.8 62.6047 141.838 63.2388 143.064C64.2833 145.072 64.3953 147.117 63.7238 149.236C62.9777 151.652 60.4784 153.362 57.9417 153.213C57.6806 153.213 57.4195 153.102 57.2703 153.436C60.8141 155.518 68.909 154.031 74.0196 147.117C73.833 148.009 73.7211 148.641 73.6092 149.31C73.3108 151.28 73.2735 153.251 73.9449 155.221C74.1688 155.927 74.2807 156.671 74.4299 157.414C75.2506 157.637 75.176 156.931 75.3252 156.559C75.8847 155.072 76.6308 153.697 77.6753 152.433C77.6007 154.477 78.496 156.299 78.3841 158.344C78.2722 160.351 77.7872 162.247 77.5634 164.255C80.958 161.355 82.3382 157.451 83.2335 153.251C84.5391 154.291 84.8749 155.816 85.4717 157.414C86.7027 156.782 87.3369 155.63 88.2322 154.366C88.7171 157.042 88.9036 159.496 88.6798 161.987C91.2165 159.719 93.0816 157.08 94.2753 153.622C95.0214 156.596 93.9396 159.124 93.6039 161.764C96.1778 159.013 98.0803 155.964 98.901 152.247C99.1994 154.812 99.7217 157.266 100.43 159.645C101.214 159.719 101.214 159.236 101.326 158.79C101.848 156.596 102.37 154.403 102.892 152.21C103.004 151.726 103.116 151.28 103.303 150.797C103.415 152.693 104.012 154.44 104.683 156.187C105.093 157.228 105.466 158.306 106.063 159.273C106.287 159.533 106.511 159.831 106.697 160.091C106.735 160.054 106.772 159.979 106.809 159.942C106.921 159.719 107.07 159.533 107.22 159.347C107.22 159.347 107.22 159.31 107.182 159.31C107.779 158.344 108.152 157.266 108.563 156.225C109.234 154.515 109.831 152.73 109.943 150.834C110.129 151.317 110.241 151.764 110.353 152.247C110.875 154.44 111.398 156.634 111.92 158.827C112.032 159.236 112.032 159.756 112.815 159.682C113.561 157.303 114.046 154.849 114.345 152.284C115.165 156.002 117.068 159.05 119.642 161.801C119.269 159.161 118.187 156.671 118.97 153.659C120.164 157.117 122.029 159.756 124.566 162.024C124.379 159.496 124.528 157.08 125.013 154.403C125.909 155.704 126.543 156.819 127.774 157.451C128.371 155.853 128.706 154.329 130.012 153.288C130.907 157.489 132.288 161.392 135.682 164.292C135.458 162.284 134.936 160.388 134.862 158.381C134.75 156.373 135.645 154.515 135.57 152.47C136.578 153.734 137.324 155.109 137.92 156.596C138.07 156.968 137.995 157.674 138.816 157.451C138.965 156.708 139.04 155.964 139.301 155.258C139.972 153.325 139.935 151.355 139.636 149.347C139.524 148.715 139.413 148.046 139.226 147.154C144.337 154.106 152.431 155.555 155.975 153.474C155.826 153.139 155.528 153.251 155.304 153.251C152.767 153.362 150.268 151.652 149.522 149.273C148.85 147.154 148.962 145.109 150.007 143.102C150.641 141.912 150.902 141.838 152.208 142.247C153.924 142.804 155.341 143.882 156.945 145.109C156.609 143.399 155.975 142.061 155.453 140.388C156.199 140.983 156.759 141.354 157.206 141.8C158.363 142.916 159.37 144.18 160.265 145.481C160.676 146.038 161.011 146.67 162.018 146.893C162.205 145.406 161.907 144.031 161.757 142.655C161.683 141.429 161.459 140.09 161.31 138.64ZM157.654 121.131C156.833 121.056 156.125 120.945 155.416 120.908C154.446 120.87 153.476 120.87 152.506 121.094C151.723 121.279 150.902 121.242 150.193 120.796C150.268 120.945 150.38 121.094 150.492 121.317C150.044 121.614 149.634 121.874 149.111 121.465C146.612 119.606 143.591 118.751 140.867 117.227C143.255 117.636 145.381 119.086 147.843 119.272C146.612 118.343 145.307 117.562 143.553 117.041C145.045 116.558 146.127 117.302 147.209 117.413C147.545 117.264 146.948 116.893 147.507 116.781C148.477 116.558 149.447 116.484 150.417 116.632C152.655 117.041 155.975 119.123 157.654 121.131ZM142.397 111.093C145.045 111.948 147.582 113.064 150.081 114.365C150.268 114.476 150.417 114.625 150.641 114.774C148.328 115.74 143.441 115.815 140.121 115.48C141.725 115.034 143.292 115.368 144.896 114.551C144.076 114.179 143.479 114.03 142.77 114.179C142.061 114.328 141.352 114.328 140.606 114.29C140.83 113.919 141.278 114.179 141.502 113.844C140.271 113.287 138.965 113.696 137.734 113.472C137.622 113.287 137.809 113.324 137.883 113.249C137.995 113.175 138.107 113.138 138.07 112.84C137.622 112.506 137.025 112.84 136.466 112.655C136.652 112.097 137.286 112.283 137.622 111.985C137.547 111.8 137.473 111.651 137.398 111.502C137.958 111.465 138.517 111.391 139.114 111.353C137.734 110.498 136.279 111.093 134.862 111.056C137.398 109.978 139.935 110.275 142.397 111.093ZM151.089 80.2002C152.133 78.0068 153.812 76.3339 155.49 74.661C154.409 76.8172 152.581 78.4157 151.089 80.2002ZM153.252 75.8878C153.7 74.6982 154.334 73.5829 154.371 72.0959C155.005 72.5791 155.341 72.8394 155.752 73.1368C155.155 74.2892 154.222 75.0699 153.252 75.8878ZM158.96 81.2411C160.004 82.691 160.041 84.2523 160.564 85.5907C161.086 87.0033 161.422 88.4532 161.72 89.9402C162.018 91.3901 162.429 92.8399 162.578 94.6244C160.601 93.6206 158.736 94.2526 156.647 94.3641C157.467 93.6206 158.325 93.5463 159.109 93.3976C159.855 93.2489 160.638 93.2489 160.75 92.2079C160.787 91.9849 161.198 91.799 161.459 91.576C160.787 91.2786 160.228 91.0555 159.668 90.7953C160.937 89.7915 160.862 88.8993 159.333 87.8212C159.78 87.561 160.228 87.4123 160.34 86.8918C159.855 86.297 159.295 86.8175 158.698 86.8546C160.079 85.0702 159.37 83.4345 157.02 83.0999C157.505 82.3192 158.661 82.4307 158.96 81.2411ZM129.527 55.0322C132.437 54.363 135.309 53.3593 138.443 52.7645C137.585 54.0284 136.54 54.995 136.652 56.5936C142.397 56.7423 148.067 57.4858 153.998 58.4152C152.543 58.8613 151.35 59.1587 150.231 59.6048C149.074 60.0509 148.067 60.6829 147.134 61.6867C148.142 62.3186 149.111 62.3186 150.044 62.3186C153.066 62.3186 156.125 62.3186 159.034 63.1365C161.011 63.6941 163.063 64.1774 165.115 65.5158C161.832 66.7054 158.96 68.1181 156.311 69.9397C156.199 68.8244 156.125 68.7872 159.892 66.1106C155.714 67.3745 151.947 69.6794 147.769 71.0178C149.447 69.6794 151.462 68.8987 153.289 67.4489C152.282 67.1887 151.611 67.5976 151.014 67.9322C148.477 69.3077 145.978 70.7204 143.702 72.542C142.956 73.1368 142.136 73.6201 140.905 73.9918C144.449 70.4601 148.44 68.0809 152.282 65.4042C148.328 67.1887 144.896 69.7166 141.539 72.5048C141.763 71.6869 144.225 68.9731 145.381 68.0809C146.911 66.8913 148.888 66.4823 150.342 65.1068C148.104 65.2927 146.388 66.7054 144.449 67.5976C145.269 66.408 146.911 66.1106 147.657 64.6607C146.948 64.5492 146.538 64.8838 146.09 65.1812C144.747 66.1106 143.367 67.04 142.024 67.9322C141.24 68.4526 140.457 68.8987 139.524 69.0846C142.21 66.8913 145.344 65.3299 148.03 63.1365C142.583 65.9619 137.697 69.6051 132.586 72.9509C135.981 69.9768 139.898 67.7091 143.18 64.6235C141.912 65.0325 140.718 65.5901 139.636 66.3708C136.615 68.4898 133.705 70.7204 130.833 73.0624C130.049 73.6944 129.266 74.2892 128.222 74.4751C130.348 72.2074 132.773 70.2743 135.123 68.2668C137.473 66.2593 140.382 65.0325 142.77 62.5789C141.352 62.6904 140.457 63.2109 139.562 63.8057C135.682 66.3336 132.138 69.3077 128.744 72.4304C128.371 72.8022 127.96 73.1368 127.513 73.397C130.311 69.6794 133.519 66.3708 137.324 63.657C135.682 64.4377 133.929 65.0696 132.511 66.2593C130.311 68.0809 128.483 70.2743 126.692 72.4676C126.431 72.8022 126.207 73.2111 125.759 73.397C126.021 72.3561 127.177 70.6832 129.117 68.7129C130.497 67.3002 131.952 65.999 133.295 64.5864C129.303 67.1143 126.506 70.7575 123.932 74.6238C124.528 72.8022 125.61 71.3523 126.767 69.9025C128.222 68.1181 129.788 66.408 131.43 64.8094C131.915 64.3261 132.474 63.88 132.474 63.025C128.222 66.7797 124.528 70.9434 122.104 76.148C122.738 73.4342 124.155 71.0921 125.722 68.8987C127.289 66.7054 129.117 64.6979 130.497 62.393C128.035 64.3261 126.244 66.8913 124.454 69.4192C122.626 71.9843 121.358 74.8469 120.425 77.8209C120.276 75.9993 121.395 73.2111 124.006 68.3783C125.648 65.3299 127.625 62.5045 129.863 59.865C128.632 60.6457 127.438 61.5379 126.617 62.7647C123.521 67.263 120.835 71.9843 119.455 77.3376C119.418 77.4863 119.306 77.635 119.082 78.0068C119.493 72.2446 122.178 67.6719 125.125 63.2109C123.596 64.289 122.551 65.7388 121.582 67.3002C121.507 67.04 121.432 66.8541 121.358 66.631C120.686 67.04 120.686 67.895 120.052 68.4898C120.425 66.5195 121.88 65.144 122.066 63.2852C120.276 65.6645 119.455 68.4898 118.336 71.1665C118.97 67.6719 120.462 64.4748 121.88 61.2405C120.35 63.248 119.194 65.5158 117.777 67.5604C118.299 65.4786 119.53 63.7313 120.201 61.7238C118.485 63.7313 117.59 66.1849 116.396 68.4898C116.881 66.3708 117.441 64.3261 118.15 62.2443C116.21 65.1812 115.128 68.3783 114.979 71.91C114.494 71.0178 114.531 70.6832 114.904 68.3783C115.091 67.1515 115.501 65.9619 115.426 64.6979C114.419 66.1477 114.568 67.9322 114.084 69.6794C112.778 67.4861 114.68 65.7016 114.643 63.657C113.636 64.5864 113.748 65.9247 113.188 66.9284C112.703 66.4451 112.741 66.4451 113.375 64.512C113.636 63.7313 114.121 62.9506 113.972 62.0584C112.629 63.88 112.703 66.3708 111.062 68.3783C111.025 66.8913 111.845 65.8132 111.733 64.5492C110.726 66.1106 110.726 68.0437 109.906 69.6794C109.756 68.3411 110.129 67.0028 110.017 65.5901C109.197 66.0362 109.532 66.7054 109.271 67.2258C108.637 65.5158 109.98 59.7535 111.36 58.4152C111.957 59.01 111.51 60.1253 112.442 60.5714C115.762 58.0434 118.821 54.995 122.999 53.6567C122.29 54.8835 121.843 56.2218 121.022 57.4858C123.894 56.8538 126.617 55.7014 129.527 55.0322ZM85.6955 50.7198C86.367 50.5711 86.9639 50.6826 87.5234 50.7942C87.8965 50.7942 88.2322 50.8685 88.5679 50.98C91.776 51.5377 94.9468 52.0953 98.0057 53.1734C98.8637 53.4708 99.2367 53.1362 99.0502 52.1697C98.7891 50.6826 98.1922 49.3071 97.5208 47.8201C100.766 47.9688 103.75 48.6751 106.474 50.2737C106.511 50.2737 106.585 50.3109 106.623 50.3109C106.66 50.348 106.697 50.348 106.735 50.3852C106.772 50.348 106.809 50.348 106.847 50.3109C106.884 50.2737 106.959 50.2737 106.996 50.2365C109.719 48.638 112.666 47.9316 115.949 47.7829C115.277 49.2699 114.68 50.6454 114.419 52.1325C114.233 53.0619 114.606 53.4336 115.464 53.1362C118.261 52.1697 121.134 51.612 124.006 51.0916C124.64 50.8685 125.312 50.7942 125.983 50.757C126.543 50.6454 127.102 50.5339 127.774 50.6826C126.431 52.9132 124.23 54.3259 122.663 56.259C123.223 54.7348 124.305 53.6195 125.424 52.5414C125.685 52.2812 125.983 52.0953 126.207 51.7979C125.685 51.8351 125.163 51.8351 124.64 51.9838C124.342 52.1697 123.969 52.2812 123.559 52.3555C122.813 52.4671 122.104 52.8016 121.432 53.0991C120.5 53.5452 119.567 54.0284 118.448 54.5861C119.082 53.6567 120.164 53.4336 120.612 52.5786C120.313 52.3555 120.127 52.5042 119.94 52.6158C117.702 54.1028 115.799 56.0359 114.009 58.2665C114.494 56.0731 116.359 54.9207 117.105 53.1362C115.091 54.4002 113.86 56.259 112.964 58.4524C112.591 57.1512 114.233 56.1475 113.337 54.9207C112.815 54.6976 112.629 55.3296 112.218 55.2552C112.069 54.995 112.442 54.7348 112.181 54.4746C111.398 55.1437 110.838 55.9616 110.502 56.9282C110.129 57.9319 109.794 58.9356 109.421 59.9394C109.085 60.7944 109.048 61.761 108.488 62.5789C108.413 59.01 109.98 55.7757 110.614 52.3555C109.495 53.6939 108.712 55.2181 108.152 56.8166C108.152 56.7795 108.152 56.7423 108.152 56.7051C108.078 56.1103 108.078 55.5155 108.003 54.9578C108.078 54.2515 108.115 53.5452 108.003 52.8016C107.891 52.9875 107.817 53.1362 107.742 53.3221C107.63 52.8388 107.406 52.3555 107.145 51.9094C106.959 52.2068 106.847 52.4671 106.735 52.6901C106.623 52.4671 106.511 52.244 106.324 51.9094C106.026 52.3555 105.839 52.8388 105.728 53.3221C105.653 53.1362 105.541 52.9875 105.466 52.8016C105.354 53.5452 105.392 54.2887 105.466 54.9578C105.429 55.5527 105.392 56.1475 105.317 56.7051C105.317 56.7423 105.317 56.7795 105.317 56.8166C104.758 55.2552 104.012 53.7682 102.892 52.4299C103.527 55.8501 105.093 59.0843 105.019 62.6532C104.459 61.8725 104.422 60.906 104.086 60.0137C103.713 59.01 103.377 58.0063 103.004 57.0025C102.631 56.0359 102.109 55.2181 101.326 54.5489C101.065 54.8091 101.438 55.0694 101.288 55.3296C100.878 55.4039 100.692 54.772 100.169 54.995C99.274 56.1846 100.915 57.1884 100.542 58.5267C99.647 56.3333 98.416 54.4746 96.4016 53.2106C97.1477 55.0322 99.0129 56.1475 99.4978 58.3408C97.67 56.1103 95.8048 54.1771 93.5666 52.6901C93.3801 52.5786 93.1935 52.4299 92.8951 52.6529C93.3428 53.508 94.4246 53.731 95.0587 54.6604C93.9396 54.1028 93.007 53.6195 92.0744 53.1734C91.403 52.8388 90.6942 52.5042 89.9481 52.4299C89.7243 52.3927 89.5005 52.3555 89.2767 52.2812C89.1275 52.2812 88.9783 52.244 88.829 52.244C88.4933 52.2068 88.1576 52.1697 87.8591 52.0953C87.6726 52.0581 87.5234 51.9838 87.3369 51.9466C87.5607 52.2068 87.8591 52.4299 88.083 52.6529C89.2021 53.731 90.2839 54.8463 90.8434 56.3705C89.2394 54.363 87.0385 52.9503 85.6955 50.7198ZM51.7494 89.903C52.0478 88.416 52.3835 86.9662 52.9058 85.5535C53.428 84.2152 53.4653 82.691 54.5098 81.2039C54.8083 82.3936 55.9647 82.282 56.4123 83.0627C54.0995 83.3973 53.3534 84.9959 54.7336 86.8175C54.1741 86.7803 53.6145 86.2598 53.0923 86.8546C53.2042 87.3751 53.6518 87.5238 54.0995 87.784C52.57 88.825 52.4954 89.7543 53.7638 90.7581C53.2042 91.0183 52.6447 91.2414 51.9732 91.5388C52.2343 91.7618 52.6447 91.9477 52.682 92.1708C52.7939 93.2117 53.5772 93.2117 54.3233 93.3604C55.1067 93.5463 55.9647 93.5835 56.7853 94.327C54.6963 94.2526 52.7939 93.5835 50.8541 94.5872C51.0406 92.8028 51.4509 91.3529 51.7494 89.903ZM57.5314 100.275C55.6289 99.6803 53.6518 99.5316 51.6375 99.6059C51.2644 99.6059 50.8541 99.6059 50.7795 100.015C50.6676 100.572 51.1525 100.572 51.5255 100.721C51.9359 100.907 52.57 100.684 52.7566 101.353C52.3462 101.353 51.9359 101.316 51.5628 101.353C51.2271 101.39 50.9287 101.502 50.966 101.911C50.966 102.208 51.1152 102.431 51.4136 102.468C52.4208 102.58 53.3534 103.138 54.3233 103.435C54.2114 103.547 54.0995 103.658 53.9876 103.77C53.5026 103.732 52.9804 103.658 52.4954 103.584C52.0851 103.547 51.4882 103.398 51.4509 104.03C51.3763 104.587 51.8613 104.625 52.3089 104.587C52.6073 104.587 52.7939 104.662 52.9431 104.811C52.57 105.182 52.197 105.554 51.824 105.889C51.0033 106.149 50.5184 106.669 50.2945 107.413C49.8469 107.859 49.4366 108.268 48.9889 108.714C49.3246 104.625 49.6604 100.535 50.593 96.5203C51.0779 97.6728 52.1224 97.7471 53.055 97.933C54.8456 98.2304 56.5242 98.8996 58.0537 99.7918C57.7925 100.015 57.6433 100.164 57.5314 100.275ZM59.0609 98.7881C58.6132 98.5278 58.1283 98.2676 57.6806 97.9702C58.3521 98.0074 58.9862 98.1561 59.5831 98.2676C59.3966 98.4535 59.2474 98.6394 59.0609 98.7881ZM64.2833 92.0964C64.4326 92.1708 64.5818 92.2451 64.7683 92.3195C64.731 92.2451 64.6564 92.2079 64.6191 92.1336C64.8429 92.1708 65.0667 92.2079 65.2905 92.3195C65.1786 92.8771 64.8802 93.286 64.5445 93.5835C63.4627 94.5872 62.3809 95.6281 61.2991 96.6319C60.2546 95.4422 59.1355 94.327 58.3148 93.0258C59.8069 93.5463 60.7022 94.8474 62.0451 95.5538C60.9633 93.6578 59.1728 92.431 57.606 90.9068C58.5013 90.7209 59.0609 91.1299 59.7323 91.6131V90.2748C60.553 90.4235 61.2991 90.7209 62.0451 91.0555C61.784 91.2042 61.5602 91.3529 61.2991 91.5016C60.8887 91.7247 60.2919 91.8734 60.4411 92.6541C61.7467 92.8399 62.9777 92.0592 64.2833 92.0964ZM57.7179 73.0996C58.091 72.8022 58.4267 72.542 59.0982 72.0587C59.1728 73.5457 59.7696 74.661 60.2173 75.8506C59.2474 75.0699 58.3148 74.2892 57.7179 73.0996ZM62.3809 80.2002C60.8887 78.3786 59.0609 76.8172 57.979 74.661C59.6577 76.3711 61.3364 78.044 62.3809 80.2002ZM61.1498 87.8212C60.9633 87.9327 60.8141 88.0443 60.6276 88.1186C60.2173 87.5982 59.6577 87.152 59.1728 86.4829C59.9561 86.8546 60.553 87.3751 61.1498 87.8212ZM59.7696 85.665C59.8815 85.5163 59.9561 85.3304 60.068 85.1817C61.0752 85.5163 61.784 86.2598 62.5674 86.9662C62.269 87.152 61.9705 87.3007 61.6721 87.4866C61.1125 86.8546 60.4038 86.297 59.7696 85.665ZM59.7323 88.7878C59.6577 88.8993 59.5831 89.048 59.5831 89.2339C59.1728 89.0108 58.7624 88.7134 58.3894 88.3788C58.9489 88.2301 59.322 88.4904 59.7323 88.7878ZM66.1485 87.4866C66.1858 87.561 66.2604 87.6353 66.2977 87.7097C66.1485 88.1186 65.8501 88.2673 65.6263 88.4904C64.6937 89.3082 63.6865 90.0146 62.642 90.6837C61.7467 90.2376 60.8141 89.8659 59.9561 89.4198C60.2173 89.3454 60.4411 89.2711 60.6649 89.1967C60.8141 89.1967 60.926 89.1967 61.0752 89.1595C61.0752 89.1224 61.0379 89.0852 61.0379 89.048C61.411 88.8993 61.8213 88.7506 62.1943 88.6019C62.3436 88.6763 62.4928 88.7506 62.6793 88.825C62.6047 88.7134 62.5301 88.6019 62.4928 88.4904C62.9777 88.3045 63.4254 88.1186 63.9103 87.9699C64.0222 88.0443 64.1341 88.0814 64.246 88.1558C64.1714 88.0814 64.0968 88.0071 64.0595 87.9327C64.731 87.7469 65.4024 87.561 66.1485 87.4866ZM64.246 85.9624C63.8357 86.2227 63.3881 86.4829 62.9777 86.7059C61.4856 84.9958 59.9934 83.2858 57.979 82.1333C59.695 82.1333 60.4038 83.6947 61.8586 84.2152C60.8514 83.0999 59.8815 81.9846 58.7624 80.7578C60.18 80.9809 60.8141 82.2448 62.2316 82.6166C61.5975 81.8731 61.1498 81.3154 60.7022 80.795C59.9188 79.8284 59.9188 79.8284 59.7696 78.8247C61.7094 80.9809 63.3508 83.2486 64.9175 85.5535C64.6937 85.7022 64.4699 85.8509 64.246 85.9624ZM69.767 72.5791C67.5287 70.7575 64.9921 69.3449 62.4555 67.9694C61.8586 67.6348 61.1872 67.263 60.18 67.4861C62.0078 68.9359 64.0595 69.7166 65.7009 71.0549C61.5229 69.7538 57.7552 67.4489 53.5772 66.1477C57.3449 68.8244 57.2703 68.8616 57.1584 69.9768C54.4725 68.1552 51.6375 66.7054 48.3547 65.5529C50.4437 64.2146 52.4581 63.7313 54.4352 63.1737C57.3822 62.3558 60.4038 62.3558 63.4254 62.3558C64.3953 62.3558 65.3651 62.3558 66.335 61.7238C65.4397 60.7201 64.3953 60.0509 63.2388 59.642C62.1197 59.1959 60.926 58.8985 59.4712 58.4524C65.4024 57.523 71.0353 56.7795 76.8173 56.6307C76.9292 55.0322 75.8847 54.0284 75.0267 52.8016C78.1602 53.3965 80.9953 54.4002 83.9423 55.0694C86.852 55.7385 89.5751 56.9282 92.4475 57.6345C91.6268 56.3705 91.2165 55.0322 90.4704 53.8054C94.6484 55.1437 97.7073 58.1921 101.027 60.7201C101.96 60.274 101.475 59.1587 102.109 58.5639C103.489 59.9022 104.87 65.6645 104.198 67.3745C103.937 66.8913 104.273 66.1849 103.452 65.7388C103.34 67.1515 103.75 68.4898 103.564 69.8281C102.743 68.1552 102.743 66.2593 101.736 64.6979C101.587 65.9619 102.445 67.0028 102.408 68.527C100.803 66.5195 100.878 64.0659 99.4978 62.2071C99.3486 63.1365 99.8336 63.88 100.095 64.6607C100.729 66.5939 100.766 66.5567 100.281 67.0771C99.7217 66.0362 99.8336 64.7351 98.8264 63.8057C98.7891 65.8503 100.692 67.6348 99.3859 69.8281C98.901 68.0809 99.0129 66.2964 98.043 64.8466C98.0057 66.1106 98.3787 67.3002 98.5652 68.527C98.9383 70.8319 98.9756 71.1665 98.4906 72.0587C98.3414 68.4898 97.2596 65.3299 95.3198 62.393C95.9913 64.4377 96.5882 66.5195 97.0731 68.6385C95.8794 66.3336 95.0214 63.88 93.2682 61.8725C93.9396 63.88 95.1706 65.6645 95.6929 67.7091C94.2753 65.6273 93.1189 63.3967 91.5895 61.3892C92.9697 64.6235 94.4992 67.8207 95.1333 71.3152C94.0142 68.6385 93.1935 65.8132 91.403 63.4339C91.5895 65.2927 93.0816 66.6682 93.4174 68.6385C92.7832 68.0437 92.7832 67.2258 92.1117 66.7797C92.0371 67.0028 91.9625 67.1887 91.8879 67.4489C90.918 65.8503 89.8362 64.4377 88.3441 63.3596C91.2911 67.8207 93.9769 72.3933 94.3873 78.1555C94.1634 77.7838 94.0515 77.6351 94.0142 77.4863C92.634 71.9843 89.9481 67.263 86.852 62.7647C86.0313 61.5379 84.8376 60.6457 83.6066 59.865C85.8448 62.5417 87.8218 65.3299 89.4632 68.3783C92.0744 73.2111 93.1935 75.9993 93.0443 77.8209C92.1117 74.8097 90.8434 71.9472 89.0156 69.4192C87.225 66.8913 85.4344 64.3261 82.9724 62.393C84.3526 64.7351 86.1805 66.7054 87.7472 68.8987C89.3513 71.1293 90.7315 73.4342 91.3657 76.148C88.941 70.9434 85.2479 66.7797 80.9953 63.025C80.958 63.8428 81.5549 64.3261 82.0398 64.8094C83.6812 66.4451 85.2479 68.1181 86.7027 69.9025C87.8591 71.3152 88.9409 72.8022 89.5378 74.6238C86.9639 70.7575 84.1661 67.1143 80.1746 64.5864C81.5176 65.999 83.0097 67.3374 84.3526 68.7129C86.2924 70.7204 87.4488 72.3933 87.7099 73.397C87.2623 73.2111 87.0385 72.8022 86.7773 72.4676C84.9868 70.2743 83.1589 68.0809 80.958 66.2593C79.5405 65.0696 77.8245 64.4377 76.1459 63.657C79.9881 66.3708 83.1589 69.6794 85.9567 73.397C85.509 73.1368 85.0987 72.765 84.7257 72.4304C81.331 69.2705 77.8245 66.2964 73.9076 63.8057C73.0124 63.248 72.1171 62.6904 70.6995 62.5789C73.087 64.9953 75.9966 66.2593 78.3468 68.2668C80.6969 70.2743 83.1216 72.2074 85.2479 74.4751C84.2034 74.2892 83.42 73.6944 82.6367 73.0624C79.7643 70.7204 76.8546 68.4898 73.833 66.3708C72.7512 65.5901 71.5575 65.0325 70.2892 64.6235C73.5719 67.7091 77.4888 70.014 80.8834 72.9509C75.7728 69.6051 70.8861 65.9619 65.4397 63.1365C68.0883 65.3671 71.2591 66.8913 73.9449 69.0846C73.0124 68.8616 72.229 68.4526 71.4456 67.9322C70.1027 67.0028 68.7225 66.1106 67.3795 65.1812C66.9319 64.8838 66.5589 64.5492 65.8128 64.6607C66.5589 66.1106 68.1629 66.408 69.0209 67.5976C67.0811 66.7054 65.3651 65.2927 63.1269 65.1068C64.5818 66.4823 66.5589 66.9284 68.0883 68.0809C69.2447 68.9731 71.6694 71.6869 71.9306 72.5048C68.5732 69.7538 65.1413 67.1887 61.1498 65.4414C64.9921 68.1181 69.0209 70.5345 72.5274 74.029C71.3337 73.6944 70.513 73.2111 69.767 72.5791ZM78.8317 78.7503C77.3023 77.7466 75.922 76.557 74.7283 75.1443C74.1315 74.4379 73.5346 73.7316 73.3854 72.765C73.2735 71.9472 72.3036 71.5382 72.0052 70.6088C72.7885 70.7204 73.3481 71.0921 73.9449 71.3524C76.0712 72.2446 78.1602 73.174 80.2865 74.1034C81.7787 74.7725 83.047 75.7019 84.2034 77.0402C84.278 76.4083 83.6812 76.0365 83.9796 75.4045C86.4416 76.1852 88.6798 77.4492 90.8807 78.9734C90.918 77.9325 90.918 77.9325 89.9481 76.2595C90.8434 76.5941 91.1792 77.412 91.8879 77.8209C92.6713 78.267 93.2682 78.9734 93.7904 79.6797C94.2753 80.3489 94.723 81.018 95.3944 81.9474C95.6183 79.3451 95.6929 77.0031 96.1032 74.7353C96.6628 74.7725 96.8866 75.1071 97.0731 75.5532C97.2223 75.8878 97.4088 76.2224 97.8192 76.1852C98.3414 76.1852 98.416 75.7391 98.5652 75.3673C99.2367 73.397 99.9082 71.4267 100.58 69.4564C100.692 69.0846 100.841 68.75 100.99 68.3039C101.811 68.9359 102.296 69.7538 102.892 70.423C103.788 71.3895 104.086 71.3523 104.608 70.0884C105.317 68.4155 105.951 66.7426 106.697 65.1068C107.406 66.7426 108.078 68.4526 108.786 70.0884C109.309 71.3523 109.607 71.3895 110.502 70.423C111.137 69.7538 111.621 68.9359 112.405 68.3039C112.554 68.75 112.703 69.0846 112.815 69.4564C113.487 71.4267 114.158 73.397 114.83 75.3673C114.941 75.7391 115.053 76.1852 115.576 76.1852C116.023 76.1852 116.172 75.8878 116.322 75.5532C116.508 75.1443 116.732 74.7725 117.292 74.7353C117.702 77.0031 117.777 79.308 118 81.9474C118.635 81.018 119.119 80.3117 119.604 79.6797C120.127 78.9734 120.724 78.267 121.507 77.8209C122.216 77.412 122.551 76.6313 123.447 76.2595C122.514 77.9325 122.514 77.9325 122.514 78.9734C124.715 77.4863 126.953 76.2224 129.415 75.4045C129.676 75.9993 129.08 76.3711 129.191 77.0402C130.348 75.7019 131.616 74.7353 133.108 74.1034C135.197 73.174 137.324 72.2446 139.45 71.3524C140.047 71.0921 140.606 70.7575 141.39 70.6088C141.091 71.5382 140.121 71.9472 140.009 72.765C139.86 73.7688 139.301 74.4379 138.666 75.1443C137.473 76.557 136.093 77.7466 134.563 78.7503C129.191 82.2077 126.17 87.2264 124.491 93.2489C123.484 96.9293 122.402 100.535 120.835 104.03C120.5 104.736 120.089 105.331 119.493 105.889C120.388 104.067 121.171 102.208 121.805 100.312C122.439 98.3791 123.26 96.4832 123.074 94.3641C121.917 96.8177 121.656 99.6059 120.313 101.985C121.358 96.446 122.253 90.9068 123.894 85.5163C122.887 87.3379 121.992 89.2339 121.171 91.0927C120.35 92.9515 119.866 94.9218 119.306 96.8549C119.567 91.6875 121.283 86.9662 123.596 82.4307C121.171 86.3342 119.157 90.4235 118.485 95.0333C118.485 91.6131 119.679 88.4904 120.462 85.2189C119.567 86.3342 119.008 87.6725 118.485 88.9737C118.56 87.561 119.194 86.2598 119.493 84.8471C118.821 85.0702 119.008 85.7765 118.56 86.0368C118.373 85.6278 118.821 85.1446 118.523 84.7728C118.112 84.7728 118.261 85.4048 117.888 85.3304C117.329 85.033 117.627 84.3639 117.18 84.0665C116.732 84.401 117.18 85.1074 116.583 85.442C116.434 84.6984 116.732 84.0293 116.732 83.3973C116.732 82.8025 116.732 82.2077 116.732 81.6129C116.359 82.4679 116.471 83.3601 116.023 84.4754C115.874 83.2114 115.911 82.282 115.986 81.3155C116.098 80.3489 116.508 79.3823 115.911 78.4901C115.277 78.4901 115.501 79.2336 115.053 79.2708C114.83 78.9362 114.643 78.5644 114.158 78.7875C113.897 78.3414 114.345 77.6722 113.487 77.3748C112.89 78.3786 113.487 79.6425 112.778 80.7206C112.703 79.1964 113.449 77.8209 112.852 76.4826C112.33 76.4454 112.33 76.9659 111.994 77.1889C111.92 76.3339 112.181 75.6276 111.696 74.6982C111.099 76.7057 111.398 78.676 110.801 80.4604C110.204 78.5273 111.435 76.5198 110.54 74.5495C109.943 75.1443 110.092 75.8506 109.943 76.557C109.794 75.7391 110.055 74.8469 109.271 74.2892C109.01 74.2892 109.048 74.6982 108.674 74.5866C108.451 74.3636 108.674 73.8431 108.04 73.5457C107.854 75.925 108.152 78.1927 108.003 80.4976C107.779 80.3117 107.667 80.0886 107.593 79.8656C107.854 77.2261 107.742 74.5866 107.63 71.9472C107.443 72.1702 107.332 72.3561 107.257 72.5791C107.22 72.0959 107.108 71.6126 106.66 71.1665C106.212 71.6126 106.101 72.0959 106.063 72.5791C105.989 72.3561 105.877 72.133 105.69 71.9472C105.578 74.5866 105.466 77.2261 105.728 79.8656C105.653 80.0886 105.541 80.3117 105.317 80.4976C105.168 78.1927 105.466 75.925 105.28 73.5457C104.646 73.8059 104.87 74.3636 104.646 74.5866C104.273 74.661 104.31 74.2521 104.049 74.2892C103.265 74.8469 103.527 75.7019 103.377 76.557C103.228 75.8506 103.377 75.1443 102.781 74.5495C101.885 76.5198 103.116 78.5273 102.519 80.4604C101.923 78.676 102.221 76.7057 101.624 74.6982C101.176 75.5904 101.438 76.3339 101.326 77.1889C100.99 76.9659 100.99 76.4454 100.468 76.4826C99.8709 77.8209 100.58 79.1964 100.542 80.7206C99.8336 79.6054 100.43 78.3414 99.8336 77.3748C98.9756 77.6722 99.4232 78.3414 99.1621 78.7875C98.6772 78.5644 98.4906 78.899 98.2668 79.2708C97.7819 79.1964 98.043 78.4901 97.4088 78.4901C96.812 79.3823 97.2223 80.3489 97.3342 81.3155C97.4461 82.2448 97.4461 83.2114 97.2969 84.4754C96.8493 83.3601 96.9985 82.4307 96.5882 81.6129C96.5882 82.2077 96.5882 82.8025 96.5882 83.3973C96.5882 84.0665 96.8866 84.6984 96.7374 85.442C96.1405 85.1074 96.6255 84.401 96.1405 84.0665C95.6929 84.3267 95.9913 85.033 95.4318 85.3304C95.0587 85.4048 95.2079 84.81 94.7976 84.7728C94.4992 85.1817 94.9468 85.6278 94.7603 86.0368C94.2753 85.7765 94.4619 85.0702 93.8277 84.8471C94.1261 86.297 94.7603 87.561 94.8349 88.9737C94.3126 87.6725 93.7531 86.3342 92.8578 85.2189C93.6412 88.4532 94.8349 91.6131 94.8349 95.0333C94.1634 90.4235 92.1117 86.3714 89.7243 82.4307C92.0371 86.9662 93.7531 91.6875 94.0142 96.8549C93.4174 94.9218 92.9697 92.9515 92.149 91.0927C91.3284 89.1967 90.4331 87.3379 89.4259 85.5163C91.0672 90.9068 91.9252 96.4832 93.007 101.985C91.6641 99.6059 91.403 96.8177 90.2466 94.3641C90.0601 96.4832 90.8807 98.3791 91.5149 100.312C92.149 102.208 92.9324 104.067 93.8277 105.889C93.2308 105.368 92.8205 104.773 92.4848 104.03C90.918 100.572 89.8362 96.9293 88.829 93.2489C87.225 87.2264 84.2034 82.1705 78.8317 78.7503ZM72.3036 98.3791C72.9378 98.8996 73.6465 99.3457 74.3926 99.7918C74.4299 100.052 74.5045 100.312 74.6537 100.572C73.7584 100.126 72.8631 99.6059 72.0052 99.0855C72.1171 98.8252 72.229 98.6022 72.3036 98.3791ZM70.7741 102.171C70.7741 102.134 70.8115 102.134 70.8115 102.097C72.0052 102.692 73.2362 103.212 74.4672 103.658C75.2506 103.955 76.0712 104.179 76.8919 104.364C77.4142 104.476 78.0483 104.662 78.496 104.03C78.0856 103.286 77.3396 103.063 76.6308 102.877C74.7656 102.357 73.0497 101.576 71.371 100.684C71.4829 100.424 71.5948 100.164 71.6694 99.9405C74.3926 101.539 77.3769 102.729 78.496 102.283C78.4214 101.985 78.3095 101.874 78.1229 101.836C77.0038 101.576 75.9966 101.204 74.9894 100.721C75.176 100.61 75.2879 100.461 75.3625 100.312C76.5562 100.833 77.8991 101.019 79.2047 101.167C79.6524 101.204 80.1 101.13 80.4358 100.758C79.6897 100.312 78.6825 100.647 77.7499 99.9033C80.8461 100.126 83.0843 98.8252 85.0987 97.0036C85.8075 96.3345 86.5908 95.7396 87.5234 95.4051C87.7845 95.2935 88.1203 95.1448 88.3814 95.6653C86.8893 96.7806 88.083 98.2676 88.0084 99.6803C87.4488 99.3085 87.7472 98.565 87.1131 98.2304C86.4789 99.2342 87.2996 100.164 87.1877 101.13C86.2551 100.572 86.3297 99.3457 85.509 98.6765C85.509 99.9405 85.9567 101.056 86.2551 102.468C85.3971 101.651 85.3598 100.684 84.6137 99.829V102.692C84.1661 102.097 84.1661 101.465 83.6066 101.13C82.8605 103.138 84.4645 104.662 84.4272 106.483C83.1962 105.405 83.5319 103.584 82.5247 102.245C81.9279 103.658 83.047 104.736 82.8978 105.926C81.9652 105.889 82.0771 105.071 81.7787 104.587C81.4056 104.922 81.8906 105.368 81.7041 105.666C79.6524 106.669 77.7872 108.156 75.3252 107.859C76.78 107.562 78.1975 107.19 79.3167 105.666C78.3095 106 77.4888 106.075 76.407 105.926C77.153 105.703 77.7872 105.74 78.2348 105.294C76.1459 104.773 74.0569 104.402 72.0798 103.621C71.5202 103.398 70.9607 103.138 70.4384 102.877C70.5876 102.617 70.6622 102.394 70.7741 102.171ZM76.0712 111.428C75.9966 111.614 75.922 111.762 75.8474 111.911C76.1832 112.209 76.8173 112.023 77.0038 112.58C76.4816 112.766 75.8474 112.432 75.3998 112.766C75.3252 113.026 75.4744 113.101 75.5863 113.175C75.6609 113.212 75.8474 113.175 75.7355 113.398C74.5045 113.621 73.1989 113.212 71.9679 113.77C72.1917 114.104 72.6393 113.844 72.8631 114.216C72.0798 114.253 71.371 114.253 70.6995 114.104C69.9908 113.956 69.3939 114.104 68.5732 114.476C70.1773 115.294 71.744 114.96 73.3481 115.406C70.0281 115.74 65.1413 115.666 62.8285 114.699C63.015 114.551 63.2015 114.402 63.3881 114.29C65.8501 112.989 68.424 111.874 71.0726 111.019C73.5346 110.201 76.0712 109.904 78.6079 110.907C77.1903 110.907 75.7355 110.35 74.3553 111.205C74.9521 111.316 75.5117 111.391 76.0712 111.428ZM68.9463 101.093C69.0955 101.39 69.1328 101.762 69.1328 102.097C68.7225 101.874 68.3494 101.651 67.9391 101.428C68.2375 101.204 68.5359 101.056 68.9463 101.093ZM67.4168 101.911C67.4168 101.874 67.4541 101.874 67.4168 101.911C67.9764 102.431 68.6105 102.952 69.1328 103.658C68.2375 103.398 67.566 102.877 66.9319 102.32C67.1184 102.171 67.2676 102.022 67.4168 101.911ZM59.2847 110.945C60.1427 111.019 60.9633 110.982 61.784 110.833C61.1125 110.684 60.4411 110.498 59.8069 110.35C59.9561 110.201 60.1053 110.015 60.2173 109.866C61.9705 109.606 63.7984 109.941 65.589 109.643C64.2087 109.011 62.6793 108.937 61.2245 108.714C61.4856 108.417 61.7467 108.119 62.0078 107.822C62.642 108.045 63.2761 108.491 64.1341 108.305C63.6119 107.822 63.0896 107.487 62.5301 107.19C62.8658 106.818 63.1642 106.446 63.5 106.037C63.9476 106.186 64.3953 106.372 64.8429 106.558C64.6564 105.963 64.0968 105.926 63.9849 105.628C63.9849 105.591 63.9476 105.554 63.9476 105.517C64.0595 105.368 64.2087 105.219 64.3206 105.071C64.9921 104.29 65.7009 103.509 66.4469 102.803C68.424 104.476 70.8488 105.48 73.6092 106.112C71.8186 106.335 70.2892 105.926 68.7971 105.294C68.0137 104.996 67.2676 104.327 66.1485 104.848C67.0438 106.781 68.909 107.115 70.5503 107.636C69.8789 108.268 68.7225 107.71 68.0137 108.751C69.767 108.937 71.4083 108.974 72.9751 109.383C70.2519 110.387 67.566 111.13 64.731 111.428C62.7539 111.614 60.7768 111.725 58.7997 111.577C58.9116 111.391 59.0982 111.168 59.2847 110.945ZM63.0523 116.67C64.0222 116.521 64.9921 116.595 65.962 116.818C66.5216 116.93 65.9247 117.302 66.2604 117.45C67.3422 117.339 68.3867 116.595 69.9162 117.079C68.1629 117.599 66.8573 118.38 65.6263 119.309C68.0883 119.086 70.2146 117.673 72.602 117.264C69.8789 118.789 66.8946 119.644 64.3579 121.502C63.8357 121.874 63.4254 121.651 62.9777 121.354C63.0896 121.131 63.2015 120.982 63.2761 120.833C62.5674 121.279 61.7467 121.317 60.9633 121.131C59.9934 120.908 59.0235 120.908 58.0537 120.945C57.3449 120.982 56.5988 121.094 55.8154 121.168C57.4941 119.123 60.8141 117.041 63.0523 116.67ZM49.3992 139.421C48.9516 139.607 48.5786 140.053 47.9817 139.942C48.3174 139.012 48.6532 138.194 48.8397 137.339C49.6977 133.138 49.5858 128.9 48.9516 124.662C48.9143 124.328 48.877 124.03 48.8024 123.696C49.2127 123.175 49.6231 122.655 50.0334 122.097V122.134C51.0406 122.32 51.7867 121.428 52.7939 121.391C52.2343 122.246 51.4882 122.766 50.593 123.101C49.9215 123.361 49.3246 123.696 49.1381 124.402C49.4739 124.774 50.0707 124.551 50.3318 124.96C49.8096 126.261 49.5112 127.562 50.6676 128.715C50.7795 128.863 50.8914 129.049 50.7795 129.198C50.1453 130.053 50.8541 130.722 51.0033 131.503C49.9961 132.878 49.9961 133.064 50.966 133.808C50.2945 135.443 50.2945 135.443 50.7049 136.187C51.1152 136.261 51.339 135.778 51.824 135.815C51.7121 136.336 51.339 136.819 51.7494 137.376C52.9431 136.968 53.6891 136.038 54.8456 135.146C54.4352 136.187 53.8384 136.782 53.4653 137.488C53.3907 137.637 53.2788 137.785 53.0923 137.785C51.5628 137.86 50.6303 138.975 49.3992 139.421ZM53.9503 140.945C54.4725 141.168 54.7336 140.462 55.2932 140.797C54.0249 142.321 53.3534 144.217 52.1597 145.778C52.2716 143.994 52.4581 142.247 52.7193 140.499C52.7566 140.165 52.7939 139.793 53.055 139.496C54.5098 137.785 56.1512 136.261 57.8671 134.811C56.4123 136.782 54.5471 138.455 53.9503 140.945ZM62.269 129.309C59.2847 130.573 56.2631 130.127 53.428 128.529C53.1669 128.38 52.7193 128.343 52.7193 127.785C53.3534 127.785 53.9503 127.822 54.5844 127.785C56.748 127.674 58.7997 127.302 60.5903 125.926C61.411 125.294 62.1943 124.7 62.9404 123.956C64.6191 122.357 66.335 120.796 68.5732 119.867C71.5202 118.603 74.5418 117.636 77.7499 117.227C78.5706 117.116 79.3913 117.227 80.4358 117.227C79.242 118.194 78.0856 118.826 76.9665 119.458C75.8101 120.09 74.5791 120.499 73.3854 121.131C75.5117 120.833 77.3023 119.755 79.2047 118.863C78.4214 119.867 77.4888 120.685 76.3697 121.242C74.1315 122.395 71.8559 123.473 69.3566 124.105C68.7971 124.253 68.2002 124.365 67.7153 124.997C69.3566 124.96 70.6995 124.179 72.1917 124.179C69.655 125.257 66.82 125.555 64.5072 127.19C66.8573 126.372 69.3193 126.112 71.6694 125.406C74.0569 124.7 76.2205 123.547 78.496 122.506C75.5117 124.328 72.6766 126.484 69.2074 127.376C72.4901 127.079 75.3625 125.703 78.1602 124.068C77.6753 124.737 77.0784 125.22 76.5189 125.778C74.8775 127.376 72.8258 128.045 70.6249 128.008C67.7526 128.008 64.9921 128.157 62.269 129.309ZM81.4056 116.075C81.2564 116 81.1072 115.926 80.7715 115.74C82.4128 114.736 83.7185 113.361 85.9194 113.733C85.6582 114.253 85.1733 114.625 85.509 115.071C85.9194 115.591 86.4043 115.145 86.8146 114.997C87.1504 114.885 87.4488 114.662 87.7472 114.513C87.9711 114.402 88.2322 114.29 88.4933 114.625C87.0758 115.554 85.2106 115.889 84.3153 117.599C86.0686 117.116 87.4115 115.666 89.2767 115.443C87.225 116.67 85.6955 118.38 84.3153 120.276C87.1877 118.603 89.687 116.335 93.1562 115.963C90.7688 116.93 88.7544 118.38 87.3369 120.573C89.5005 119.458 91.403 117.822 93.8277 117.264C91.7387 118.789 89.9854 120.573 88.456 122.618C90.3585 121.317 92.1117 119.867 94.35 119.16C92.8205 120.462 91.5895 121.986 90.3212 123.51C92.3729 122.246 94.3873 120.982 96.5136 119.83C97.185 119.458 97.4461 119.606 97.6327 120.276C95.6556 121.056 94.0142 122.209 93.0443 124.105C95.0214 123.51 96.4763 121.726 98.7891 121.911C95.581 124.068 93.2682 126.967 91.7014 130.425C91.5895 129.57 91.5895 128.789 91.5895 127.971C91.5895 127.153 91.9998 126.335 91.6641 125.183C90.0974 125.592 88.941 126.596 87.7099 127.376C86.4416 128.194 85.3225 129.198 84.0915 130.164C85.0987 128.12 85.6209 125.926 86.2178 123.584C84.3526 123.584 82.8232 124.514 81.0326 125.034C81.7414 123.547 82.674 122.395 83.4946 121.205C84.0915 120.35 83.8304 119.978 82.8232 119.83C82.0025 119.718 81.2191 120.127 80.2492 120.053C80.6969 119.235 81.2564 118.677 81.816 118.119C83.0843 116.818 83.047 116.67 81.4056 116.075ZM88.4187 137.525C89.0529 134.849 89.0156 132.172 90.0974 129.755C89.2767 133.733 89.1648 137.785 88.4933 141.8C90.2839 137.488 92.2237 133.25 94.3873 128.826C94.2753 133.027 90.3958 145.481 88.3814 148.418C88.083 148.306 88.083 148.12 88.0084 147.972C87.4115 146.373 87.3369 144.7 87.1131 143.027C86.6654 139.756 86.6281 136.484 87.2996 133.25C87.6353 131.614 88.2322 130.09 89.4259 128.566C89.0529 130.239 88.6798 131.651 88.3814 133.064C87.9338 135.481 87.9711 136.447 88.4187 137.525ZM63.9103 138.343C64.0595 136.559 64.6937 134.923 65.6636 133.436C66.82 131.651 68.2002 129.979 70.2892 129.421C72.0798 128.9 74.0942 129.123 76.1085 128.194C75.3625 129.384 74.3926 129.941 73.833 130.982C75.7355 130.722 76.9292 129.384 78.3841 128.566C74.8775 133.808 69.4312 136.075 63.9103 138.343ZM60.4784 153.511C63.2388 152.024 64.1714 150.983 64.9921 147.823C65.2159 146.856 65.1786 145.89 65.104 144.923C65.0294 143.473 65.4397 142.135 65.8501 140.797C66.1858 139.644 66.9319 138.715 68.0137 138.083C66.8946 139.83 66.4096 141.763 66.2604 143.771C67.3049 141.577 68.424 139.458 70.0281 137.637C68.8717 140.09 67.4541 142.395 67.3422 145.183C68.424 143.882 68.5732 142.172 69.5431 140.834C69.4312 141.54 69.2447 142.209 69.0955 142.879C68.909 143.808 69.1701 144.923 68.9463 145.704C68.3867 147.786 67.6407 149.905 65.6636 151.54C70.0654 150.128 72.6393 146.968 75.0641 143.622C72.8258 150.276 64.9921 154.775 60.4784 153.511ZM76.407 151.949C75.8474 153.027 75.1387 154.068 75.1387 155.37C75.1387 155.407 74.9894 155.407 74.8775 155.444C74.8402 155.332 74.7656 155.221 74.7656 155.072C74.4672 150.314 75.6236 145.853 77.4515 141.54C77.6007 141.168 77.8618 140.871 78.496 140.908C77.4515 143.919 76.2951 146.856 75.9593 150.276C76.4443 149.719 76.5189 149.236 76.6681 148.789C77.6007 146.187 78.2721 143.473 79.2793 140.871C79.5032 140.276 79.6897 139.719 80.585 139.57C79.9135 140.908 79.5778 142.172 79.242 143.436C78.5333 146.336 77.8245 149.273 76.407 151.949ZM82.7113 150.723C82.6367 151.578 82.5247 152.396 82.4874 153.251C82.3382 156.819 80.7715 159.756 78.6079 162.47C79.1301 159.57 79.4286 156.671 78.9436 153.734C78.7198 152.321 78.7198 150.908 78.6825 149.496C78.6825 148.901 78.8317 148.232 79.3167 148.195C79.8389 148.157 79.7643 147.897 79.8016 147.637C80.0254 146.336 80.2119 145.035 80.3984 143.734C80.7342 147.117 80.1746 150.537 80.9207 153.883C81.7041 150.053 81.5549 146.15 82.3755 142.321C82.0771 145.146 82.9724 147.934 82.7113 150.723ZM80.6223 138.194C79.0182 139.198 77.3396 140.128 75.7355 141.206C74.5418 141.986 73.3481 142.767 71.744 143.287C72.9004 140.462 73.6838 137.674 74.9521 135.109C75.2133 134.551 75.3252 133.808 75.7355 133.473C77.1157 132.358 78.1975 130.908 79.8762 129.644C79.3913 130.648 78.9063 131.354 79.0928 132.283C79.9881 131.986 80.3984 131.243 81.1072 130.834C79.1301 134.365 76.2951 137.228 73.7211 140.574C74.5045 140.462 74.7656 140.128 75.1014 139.83C76.5935 138.64 77.5634 136.819 79.5032 136.113C79.8016 136.001 79.9881 135.592 80.2119 135.332C81.2191 134.068 82.189 132.804 83.1962 131.503C83.905 132.06 83.3081 132.358 83.0097 132.692C81.9652 133.77 80.958 134.886 80.2492 136.298C83.047 134.811 84.9868 132.358 87.2623 129.941C86.4043 133.25 85.6209 134.44 83.2708 136.336C82.4128 137.042 81.5176 137.637 80.6223 138.194ZM85.7702 156.968C85.5836 155.147 84.7257 153.883 83.6812 152.73C83.3454 152.358 83.2335 152.024 83.2708 151.578C83.5319 149.087 84.0542 146.67 84.2407 144.142C84.3526 145.778 84.278 147.414 84.3899 149.05C84.5018 150.648 84.4645 152.321 85.3598 153.808C85.1733 150.462 85.2106 147.154 85.2106 143.622C85.7702 146.633 86.1059 149.459 86.4789 152.247C87.9338 151.987 88.4933 150.871 89.3513 150.053C88.829 152.656 87.7472 154.923 85.7702 156.968ZM89.5378 160.649C89.4259 159.199 89.3513 157.749 89.1648 156.336C89.1648 156.225 89.1275 156.039 89.2021 155.964C90.2093 154.477 90.545 152.73 91.2165 150.797C91.3657 153.622 89.6124 155.89 90.2093 158.492C91.2911 157.266 91.8133 155.778 92.5594 154.403C91.9998 156.671 91.0672 158.79 89.5378 160.649ZM102.743 150.314C102.184 152.544 101.624 154.775 101.065 157.005C101.027 157.154 100.953 157.34 100.654 157.266C100.244 153.734 98.9383 150.239 99.5351 146.559C98.9383 148.678 98.4906 150.834 97.9684 152.953C97.4088 155.072 96.6255 157.117 95.1333 158.938C95.096 158.678 95.0214 158.529 95.0587 158.418C95.581 155.704 95.1706 153.027 94.4992 150.388C93.0443 144.7 92.8205 139.049 94.7976 133.399C95.3198 131.874 96.1032 130.499 96.7747 129.049C96.4389 132.246 95.6929 135.406 96.2151 138.901C96.7747 136.224 96.7374 133.733 97.3715 131.354C97.5207 135.741 97.3342 140.165 97.8938 144.514C98.1549 140.685 97.7819 136.819 98.6772 133.027C98.7891 135.518 99.0129 137.971 99.4978 140.388C100.057 138.826 99.6843 137.191 100.057 135.629C100.43 139.272 100.803 142.879 101.176 146.522C101.736 142.321 101.475 138.157 100.953 134.031C101.923 137.153 102.37 140.351 102.743 143.548C103.004 145.815 103.303 148.083 102.743 150.314ZM108.786 151.355C108.488 152.061 108.301 152.767 108.078 153.511C107.63 155.035 107.294 156.596 106.697 158.121C106.138 156.634 105.765 155.072 105.317 153.511C105.093 152.804 104.907 152.061 104.608 151.355C103.862 149.57 103.527 147.711 103.639 145.741C104.235 146.931 104.198 148.232 104.758 149.57C105.243 148.232 104.795 146.968 104.907 145.704C105.578 146.931 105.578 148.381 106.548 149.719C106.585 149.756 106.623 149.793 106.66 149.83C106.697 149.793 106.735 149.719 106.809 149.682C107.779 148.381 107.742 146.931 108.451 145.704C108.525 146.968 108.078 148.232 108.6 149.57C109.197 148.232 109.122 146.931 109.719 145.741C109.906 147.711 109.532 149.57 108.786 151.355ZM106.735 143.622C104.385 140.722 103.34 137.191 102.482 133.585C101.923 131.205 101.811 128.752 101.4 126.372C100.692 122.246 98.7145 118.826 95.581 116.075C93.5293 114.29 90.9926 113.621 88.3814 113.212C86.5162 112.915 84.763 112.32 83.047 111.614C81.9279 111.168 81.1072 110.387 80.585 109.309C80.3238 108.751 80.3238 108.194 80.6223 107.636C81.1072 106.632 81.6295 106.446 82.6367 106.892C82.8232 106.967 83.0097 107.115 83.1962 107.227C84.651 108.268 86.1805 108.417 87.8591 107.747C89.7616 106.967 91.5522 107.153 93.3428 108.156C94.7976 108.974 95.096 108.826 95.6183 107.227C96.4389 104.848 96.4016 102.32 96.2524 99.8662C96.1405 98.3048 96.2151 96.7434 96.3643 95.2192C96.4763 94.0667 96.4389 92.9143 96.6628 91.799C97.7446 86.4457 100.915 82.9884 106.25 81.5757C106.399 81.5385 106.511 81.5013 106.66 81.4642C106.809 81.5013 106.921 81.5385 107.07 81.5757C112.405 82.9884 115.576 86.4457 116.657 91.799C116.881 92.9143 116.844 94.1039 116.956 95.2192C117.142 96.7434 117.18 98.3048 117.068 99.8662C116.881 102.32 116.881 104.848 117.702 107.227C118.224 108.788 118.56 108.937 119.977 108.156C121.768 107.153 123.596 106.93 125.461 107.747C127.14 108.454 128.669 108.268 130.124 107.227C130.311 107.115 130.497 106.967 130.684 106.892C131.691 106.446 132.213 106.632 132.698 107.636C132.959 108.194 132.996 108.714 132.735 109.309C132.213 110.387 131.392 111.168 130.273 111.614C128.557 112.32 126.767 112.915 124.939 113.212C122.328 113.621 119.791 114.29 117.739 116.075C114.606 118.826 112.629 122.246 111.92 126.372C111.51 128.752 111.398 131.205 110.838 133.585C110.129 137.191 109.085 140.722 106.735 143.622ZM129.975 121.205C130.795 122.395 131.728 123.51 132.437 125.034C130.646 124.514 129.117 123.584 127.252 123.584C127.848 125.926 128.333 128.12 129.378 130.164C128.147 129.235 127.028 128.194 125.759 127.376C124.528 126.596 123.409 125.592 121.805 125.183C121.47 126.335 121.88 127.153 121.88 127.971C121.88 128.752 121.88 129.57 121.768 130.425C120.201 126.93 117.888 124.068 114.68 121.911C116.993 121.726 118.448 123.473 120.425 124.105C119.455 122.172 117.814 121.056 115.837 120.276C116.023 119.606 116.284 119.495 116.956 119.83C119.082 120.945 121.097 122.209 123.148 123.51C121.88 122.023 120.649 120.462 119.119 119.16C121.32 119.867 123.111 121.317 125.013 122.618C123.447 120.61 121.693 118.789 119.642 117.264C122.066 117.822 123.969 119.421 126.133 120.573C124.715 118.38 122.701 116.967 120.313 115.963C123.782 116.372 126.319 118.64 129.154 120.276C127.737 118.38 126.244 116.67 124.193 115.443C126.058 115.666 127.364 117.116 129.154 117.599C128.259 115.926 126.431 115.554 124.976 114.625C125.237 114.29 125.461 114.402 125.722 114.513C126.058 114.662 126.356 114.885 126.655 114.997C127.065 115.145 127.55 115.591 127.96 115.071C128.333 114.625 127.848 114.253 127.55 113.733C129.714 113.361 131.019 114.774 132.698 115.74C132.362 115.926 132.25 116 132.064 116.075C130.385 116.67 130.385 116.818 131.653 118.119C132.213 118.677 132.773 119.235 133.22 120.053C132.25 120.127 131.467 119.718 130.646 119.83C129.639 119.978 129.378 120.387 129.975 121.205ZM123.335 129.718C124.454 132.135 124.379 134.811 125.013 137.488C125.498 136.41 125.498 135.481 125.051 133.064C124.79 131.651 124.417 130.239 124.006 128.566C125.2 130.127 125.797 131.614 126.133 133.25C126.767 136.484 126.767 139.756 126.319 143.027C126.095 144.7 126.021 146.373 125.424 147.972C125.349 148.12 125.386 148.343 125.051 148.418C123.036 145.481 119.194 132.99 119.045 128.826C121.171 133.25 123.111 137.488 124.939 141.8C124.267 137.785 124.155 133.696 123.335 129.718ZM119.008 150.388C118.336 153.027 117.926 155.667 118.448 158.418C118.485 158.529 118.411 158.678 118.373 158.938C116.844 157.117 116.098 155.072 115.538 152.953C115.016 150.834 114.568 148.715 113.972 146.559C114.568 150.276 113.263 153.734 112.852 157.266C112.554 157.34 112.479 157.154 112.442 157.005C111.883 154.775 111.323 152.544 110.763 150.314C110.204 148.083 110.502 145.815 110.763 143.585C111.137 140.388 111.621 137.191 112.554 134.068C112.032 138.194 111.771 142.358 112.33 146.559C112.703 142.916 113.076 139.31 113.449 135.666C113.822 137.228 113.449 138.864 114.009 140.425C114.457 137.971 114.718 135.518 114.83 133.064C115.725 136.856 115.389 140.722 115.613 144.551C116.21 140.165 115.986 135.778 116.135 131.391C116.732 133.77 116.695 136.261 117.292 138.938C117.814 135.406 117.03 132.283 116.732 129.086C117.404 130.536 118.187 131.949 118.709 133.436C120.686 139.049 120.425 144.7 119.008 150.388ZM124.305 156.336C124.118 157.749 124.044 159.199 123.932 160.649C122.365 158.79 121.432 156.671 120.873 154.403C121.656 155.778 122.141 157.266 123.223 158.492C123.82 155.89 122.066 153.622 122.216 150.797C122.887 152.73 123.223 154.477 124.23 155.964C124.342 156.039 124.342 156.187 124.305 156.336ZM129.751 152.73C128.706 153.883 127.848 155.147 127.662 156.968C125.685 154.923 124.603 152.619 124.081 150.053C124.939 150.871 125.498 151.987 126.953 152.247C127.326 149.421 127.662 146.633 128.222 143.622C128.222 147.154 128.259 150.462 128.072 153.808C128.968 152.321 128.893 150.648 129.042 149.05C129.154 147.414 129.08 145.778 129.191 144.142C129.378 146.633 129.9 149.087 130.161 151.578C130.236 152.024 130.124 152.358 129.751 152.73ZM126.244 129.979C128.52 132.395 130.46 134.849 133.257 136.336C132.586 134.96 131.579 133.845 130.497 132.73C130.199 132.432 129.602 132.135 130.311 131.54C131.318 132.804 132.288 134.105 133.295 135.369C133.519 135.629 133.705 136.038 134.004 136.15C135.906 136.893 136.913 138.678 138.405 139.867C138.741 140.128 139.002 140.499 139.786 140.611C137.212 137.228 134.377 134.365 132.4 130.871C133.108 131.28 133.519 132.023 134.414 132.321C134.6 131.391 134.078 130.685 133.631 129.681C135.309 130.945 136.391 132.395 137.771 133.51C138.182 133.845 138.293 134.588 138.555 135.146C139.823 137.711 140.569 140.462 141.763 143.325C140.159 142.804 138.928 142.023 137.771 141.243C136.204 140.165 134.526 139.235 132.884 138.232C131.989 137.674 131.094 137.079 130.273 136.41C127.886 134.477 127.102 133.25 126.244 129.979ZM130.982 153.251C130.945 152.396 130.833 151.578 130.758 150.723C130.497 147.897 131.43 145.146 131.057 142.358C131.877 146.187 131.691 150.091 132.511 153.92C133.257 150.574 132.698 147.154 133.034 143.771C133.22 145.072 133.444 146.373 133.631 147.674C133.668 147.972 133.593 148.195 134.115 148.232C134.6 148.269 134.787 148.938 134.75 149.533C134.712 150.946 134.712 152.358 134.489 153.771C134.004 156.708 134.339 159.57 134.824 162.507C132.698 159.756 131.131 156.819 130.982 153.251ZM138.704 155.072C138.704 155.184 138.629 155.295 138.592 155.444C138.48 155.407 138.331 155.407 138.331 155.37C138.331 154.068 137.622 153.065 137.062 151.949C135.645 149.273 134.936 146.336 134.227 143.436C133.892 142.135 133.556 140.871 132.884 139.57C133.78 139.719 133.966 140.276 134.19 140.871C135.197 143.473 135.869 146.187 136.801 148.789C136.951 149.236 137.025 149.719 137.51 150.276C137.174 146.856 136.018 143.919 134.973 140.908C135.608 140.871 135.869 141.206 136.018 141.54C137.846 145.853 138.965 150.351 138.704 155.072ZM152.991 153.511C148.477 154.775 140.644 150.276 138.405 143.622C140.83 146.968 143.404 150.128 147.806 151.54C145.829 149.868 145.083 147.749 144.523 145.704C144.299 144.923 144.56 143.808 144.374 142.879C144.225 142.209 144.038 141.54 143.926 140.834C144.896 142.172 145.045 143.882 146.127 145.183C146.053 142.395 144.598 140.09 143.441 137.637C145.083 139.458 146.164 141.577 147.209 143.771C147.06 141.763 146.575 139.83 145.456 138.083C146.538 138.715 147.246 139.644 147.619 140.797C148.03 142.135 148.477 143.473 148.365 144.923C148.291 145.89 148.254 146.893 148.477 147.823C149.261 150.983 150.231 152.024 152.991 153.511ZM135.123 128.566C136.578 129.384 137.734 130.759 139.674 130.982C139.114 129.941 138.144 129.347 137.398 128.194C139.413 129.123 141.39 128.9 143.218 129.421C145.307 130.016 146.687 131.689 147.843 133.436C148.813 134.923 149.41 136.559 149.596 138.343C144.038 136.075 138.592 133.808 135.123 128.566ZM151.2 129.309C148.477 128.157 145.717 128.008 142.882 128.083C140.681 128.12 138.629 127.451 136.988 125.852C136.428 125.332 135.831 124.811 135.346 124.142C138.144 125.778 141.017 127.153 144.299 127.451C140.83 126.558 137.995 124.402 135.011 122.581C137.286 123.584 139.45 124.774 141.837 125.48C144.225 126.149 146.687 126.447 149 127.265C146.687 125.629 143.852 125.332 141.315 124.253C142.807 124.216 144.15 125.034 145.791 125.071C145.307 124.402 144.71 124.291 144.15 124.179C141.688 123.547 139.413 122.469 137.137 121.317C136.018 120.759 135.085 119.941 134.302 118.937C136.204 119.83 138.032 120.87 140.121 121.205C138.965 120.61 137.697 120.164 136.54 119.532C135.384 118.9 134.265 118.268 133.071 117.302C134.115 117.302 134.936 117.227 135.757 117.302C138.928 117.711 141.949 118.714 144.933 119.941C147.134 120.87 148.85 122.432 150.566 124.03C151.312 124.737 152.096 125.369 152.916 126.001C154.67 127.376 156.759 127.748 158.922 127.86C159.556 127.897 160.153 127.86 160.787 127.86C160.825 128.417 160.34 128.417 160.079 128.603C157.206 130.127 154.185 130.573 151.2 129.309ZM158.176 140.797C158.736 140.462 158.997 141.168 159.519 140.945C158.922 138.455 157.02 136.782 155.602 134.774C157.356 136.224 158.997 137.748 160.414 139.458C160.676 139.756 160.676 140.128 160.75 140.462C161.011 142.209 161.198 143.957 161.31 145.741C160.116 144.18 159.445 142.321 158.176 140.797Z" fill="black"/>
</g>
<defs>
<clipPath id="clip0_101_863">
<rect width="140" height="127.885" fill="white" transform="translate(35 40.3848)"/>
</clipPath>
</defs>
</svg>
